<?xml version="1.0" encoding="UTF-8" standalone="no"?>
<svg width="104px" height="104px" viewBox="0 0 104 104" version="1.1" xmlns="http://www.w3.org/2000/svg" xmlns:xlink="http://www.w3.org/1999/xlink" xmlns:sketch="http://www.bohemiancoding.com/sketch/ns">
    <!-- Generator: Sketch 3.5.1 (25234) - http://www.bohemiancoding.com/sketch -->
    <title>1</title>
    <desc>Created with Sketch.</desc>
    <defs></defs>
    <g id="Page-1" stroke="none" stroke-width="1" fill="none" fill-rule="evenodd" sketch:type="MSPage">
        <g id="How-it-Works" sketch:type="MSArtboardGroup" transform="translate(-62.000000, -346.000000)">
            <g id="1" sketch:type="MSLayerGroup" transform="translate(62.000000, 346.000000)">
                <path d="M52,104 C80.718807,104 104,80.718807 104,52 C104,23.281193 80.718807,0 52,0 C23.281193,0 0,23.281193 0,52 C0,80.718807 23.281193,104 52,104 Z M52,102.118644 C79.6797628,102.118644 102.118644,79.6797628 102.118644,52 C102.118644,24.3202372 79.6797628,1.88135593 52,1.88135593 C24.3202372,1.88135593 1.88135593,24.3202372 1.88135593,52 C1.88135593,79.6797628 24.3202372,102.118644 52,102.118644 Z" id="Oval-38" fill="#DEDEDE" sketch:type="MSShapeGroup"></path>
                <text sketch:type="MSTextLayer" font-family="PT Serif" font-size="64" font-weight="bold" fill="#484848">
                    <tspan x="33" y="74">1</tspan>
                </text>
            </g>
        </g>
    </g>
</svg>