<?xml version="1.0" encoding="UTF-8" standalone="no"?>
<svg width="104px" height="104px" viewBox="0 0 104 104" version="1.1" xmlns="http://www.w3.org/2000/svg" xmlns:xlink="http://www.w3.org/1999/xlink" xmlns:sketch="http://www.bohemiancoding.com/sketch/ns">
    <!-- Generator: Sketch 3.5.1 (25234) - http://www.bohemiancoding.com/sketch -->
    <title>3</title>
    <desc>Created with Sketch.</desc>
    <defs></defs>
    <g id="Page-1" stroke="none" stroke-width="1" fill="none" fill-rule="evenodd" sketch:type="MSPage">
        <g id="How-it-Works" sketch:type="MSArtboardGroup" transform="translate(-62.000000, -1466.000000)">
            <g id="Group-8" sketch:type="MSLayerGroup" transform="translate(56.000000, 1457.000000)">
                <g id="3" transform="translate(6.000000, 9.000000)">
                    <path d="M52,104 C80.718807,104 104,80.718807 104,52 C104,23.281193 80.718807,0 52,0 C23.281193,0 0,23.281193 0,52 C0,80.718807 23.281193,104 52,104 Z M52,102.237288 C79.7452881,102.237288 102.237288,79.7452881 102.237288,52 C102.237288,24.2547119 79.7452881,1.76271186 52,1.76271186 C24.2547119,1.76271186 1.76271186,24.2547119 1.76271186,52 C1.76271186,79.7452881 24.2547119,102.237288 52,102.237288 Z" id="Oval-38" fill="#DDDDDD" sketch:type="MSShapeGroup"></path>
                    <text sketch:type="MSTextLayer" font-family="PT Serif" font-size="64" font-weight="bold" fill="#484848">
                        <tspan x="34" y="74">3</tspan>
                    </text>
                </g>
            </g>
        </g>
    </g>
</svg>