<?xml version="1.0" encoding="utf-8"?>
<!-- Generator: Adobe Illustrator 16.0.1, SVG Export Plug-In . SVG Version: 6.00 Build 0)  -->
<!DOCTYPE svg PUBLIC "-//W3C//DTD SVG 1.1//EN" "http://www.w3.org/Graphics/SVG/1.1/DTD/svg11.dtd">
<svg version="1.1" id="Шар_1" xmlns="http://www.w3.org/2000/svg" xmlns:xlink="http://www.w3.org/1999/xlink" x="0px" y="0px"
	 width="1140px" height="385px" viewBox="0 0 1140 385" enable-background="new 0 0 1140 385" xml:space="preserve">
<path fill="#FFFFFF" d="M180.575,244.198c0,0,0.743,22.294,1.858,33.997c1.114,11.705,3.157,23.037,4.273,23.779
	c1.114,0.744,34.369,17.835,39.941,18.578c5.573,0.743,16.906-2.786,22.851-5.572c5.945-2.785,17.463-18.765,19.878-24.896
	c2.416-6.131-5.017-25.079-6.131-27.493c-1.114-2.415-10.031-23.595-13.004-27.683c-2.972-4.086-6.873-7.801-13.561-8.544
	c-6.689-0.743-26.567-0.001-31.026,1.299C201.196,228.965,180.575,244.198,180.575,244.198z"/>
<path fill="#FFFFFF" d="M700.312,233.609c0,0,22.106-5.759,23.035-5.201c0.93,0.558,2.973,32.14,3.344,33.812
	c0.371,1.673,3.159,11.89,3.159,11.89l-30.838,11.704c0,0-1.859-15.793-2.045-20.808S700.312,233.609,700.312,233.609z"/>
<g>
	<path fill="#FFFFFF" d="M170.408,286.655 M183.704,268.531l0.333-3.021c2.884,5.615,7.304,4.579,7.304,4.579l2.569,7.422
		l4.637-1.507l-6.816,2.457 M165.527,289.156l-10.609,3.813l-0.028,5.69l-0.51-5.23l0.426,9.339l36.995,16.406l53.229,23.608
		l21.459,9.515l114.512-51.648L512,241.551v-3.429l-2.606,0.473l2.606-1.182v-6.446l-0.508,0.14l-33.698-10.403l-0.03-48.925
		l-0.24-77.906l-32.05-3.27l-14.469,22.833L362,90.155v3.537v29.114v104.839l0.797,0.262l-3.538,2.127c0,0,0.106,0.358,0.264,0.978
		c-0.473-1.245-0.97-2.307-1.369-2.751c-0.304-0.339-0.7-0.803-1.111-1.293c-0.306-0.402-0.638-0.798-0.985-1.189
		c-0.634-0.773-1.132-1.392-1.132-1.392s-0.597-1.978-0.928-3.106c0.749,1.906,1.281,3.289,1.318,3.398l-10.87-33.341
		c-0.115-1.157-0.224-2.151-0.326-2.835c-0.146-0.977-0.542-3.137-1.012-5.597c-0.47-2.69-1-5.374-1.531-7.814
		c-0.32-1.598-0.576-2.836-0.687-3.325c-0.309-1.372-0.853-3.608-1.579-5.408c-0.943-2.584-2.361-4.438-3.506-5.617
		c-0.431-0.604-0.729-1.015-0.729-1.015s-1.292-1-1.526-0.882l-0.017,0.012c0.555-0.526,1.78-1.802,1.934-2.962
		c0.201-1.507,1.104-4.018,1.708-5.222c0.603-1.205,0.468-3.994,0.468-4.998l-1.213,0.895c2.802-2.937,5.875-6.574,8.089-10.352
		c5.215-8.89,8.257-12.258,6.263-20.428c-1.996-8.171-6.478-11.723-6.478-11.723s-0.171,3.536-0.777,1.913
		c-0.606-1.624-3.675-6.606-7.657-8.614c0,0-4.321-4.429-8.422-2.528c0,0-3.712-3.468-6.798-3.131
		c-3.085,0.335-3.593,0.786-3.593,0.786s-5.896-2.12-7.494-1.328c-1.599,0.792,0.127,1.596,0.127,1.596s-3.063,1.187-3.625,1.931
		c-0.56,0.741,1.114,1.172,1.114,1.172s-8.554,5.37-12.562,11.341c-4.009,5.971-6.129,11.867-6.129,11.867s1.559,3.676,0.884,6.333
		c-0.674,2.656-1.592,6.961-0.448,6.992l0.392,0.202c-1.48,1.82-2.964,3.791-4.375,5.955c-0.713,1.094-1.269,2.18-1.718,3.252
		l-0.929-2.795c0.423,0.492,0.871,0.82,1.233,0.973l1.529-6.111c0.126,0.14,0.218,0.21,0.218,0.21l2.806-5.536
		c0,0-0.835-0.131-1.718,0.105l2.284-9.128c0,0-3.378,0.281-5.148,4.61c-1.769,4.329-2.524,7.759-2.588,10.711l-1.954,2.241
		l0.012-0.196c-2.591-0.634-4.554-0.154-5.6,0.249c0.266-0.289,0.521-0.545,0.757-0.752c0.814-0.712-3.088-0.876-6.593,0.336
		c-3.135,1.083-6.109,3.32-6.109,3.32s-3.918,0.265-23.027,2.056c-19.108,1.792-26.096,13.2-26.096,13.2
		c-0.373,0.498-2.929,3.544-5.384,7.989c-11.345,20.537-23.655,59.04-24.402,61.657c-0.788,2.752-2.883,6.318-3.766,10.767
		c-1.106,1.084-0.784,2.42-0.975,4.515c-0.015,0.164-0.015,0.433-0.004,0.785c-0.348,0.585-0.704,1.153-0.817,1.881
		c-0.147,0.947,1.23,2.904,0.51,3.446c-3.831,2.881-1.716,10.72-1.45,12.093c0.69,3.566,1.6,7.613,3.988,11.195
		c0.269,0.404,0.553,0.735,0.844,1.02c0.761,6.492,1.361,11.432,1.361,11.432l4.685-1.653 M372.26,257.666l-0.959,1.349
		c0.332-0.647,0.756-1.334,1.263-1.839c0.046-0.047,0.088-0.082,0.132-0.123L372.26,257.666z M378.445,259.694
		c-0.491-0.208-0.85-0.371-1.06-0.47l0.086-0.122C377.792,259.305,378.114,259.505,378.445,259.694z M375.508,261.863l0.208-0.292
		c-0.267,0.444-0.52,0.857-0.703,1.142c-0.044,0.07-0.092,0.129-0.142,0.184l-1.138,0.205
		C374.414,262.919,375.06,262.494,375.508,261.863z M371.626,254.022c-1.096-1.179-2.377-2.809-3.294-4.853
		c-0.272-0.607-0.526-1.172-0.762-1.721C368.595,249.857,369.964,252.065,371.626,254.022z M367.453,247.18
		c-0.972-2.278-1.619-4.261-1.862-7.298C365.882,242.454,366.513,244.903,367.453,247.18z M370.674,260.438
		c-0.084,0.528-0.011,1.048,0.21,1.498c-0.158-0.285-0.293-0.616-0.388-0.994C370.497,260.941,370.559,260.744,370.674,260.438z
		 M372.003,262.993c-0.094-0.031-0.188-0.076-0.28-0.133C371.812,262.914,371.908,262.952,372.003,262.993z M371.686,262.84
		c-0.097-0.062-0.192-0.138-0.286-0.227C371.49,262.694,371.58,262.775,371.686,262.84z M229.127,274.852l3.414,9.846
		c-0.073-0.044-0.122-0.074-0.122-0.074l0.67,1.654l0.752,2.17l-0.559,0.102l-2.354-3.306l-3.088-4.726c0,0-0.958-1.306-2.132-2.919
		L229.127,274.852z M225.87,285.917l0.529,0.36c0.985,0.974,1.842,2.062,2.536,3.06l-0.531,0.097L225.87,285.917z M295.323,179.03
		c0.44,0.405,1.727,1.626,2.059,2.373c0.401,0.906,0.702,5.524,2.108,10.544c0.43,1.532,1.281,4.296,2.407,7.73l-5.607-6.014
		c-0.226-0.493-0.458-1.008-0.693-1.517c-0.959-4.807-1.608-9.324-2.722-11.053C293.696,180.486,294.52,179.8,295.323,179.03z
		 M318.567,246.799c-0.128-0.729-0.014-1.336,0.181-1.874C318.603,245.622,318.526,246.23,318.567,246.799z M339.899,262.84
		c-0.466-0.086-0.901-0.201-1.277-0.361c-0.162-0.068-0.366-0.165-0.604-0.283C338.722,262.447,339.34,262.662,339.899,262.84z
		 M320.045,241.845l-0.272,0.204c0,0-0.013,0.032-0.031,0.078c-0.041,0.011-0.081,0.025-0.12,0.052
		c-0.046-0.864-0.423-1.498-0.423-1.498l-5.562-9.759l-24.421,9.959c1.279-2.984,3.554-8.371,4.393-10.889
		c1.195-3.583,9.484-13.672,9.484-13.672s-2.468-7.9-5.453-16.26c-0.404-1.134-0.757-2.345-1.075-3.585
		c1.42,0.787,2.596,1.443,3.147,1.759c2.04,1.165-1.945-1.457-3.014-3.693c-0.067-0.142-0.136-0.287-0.206-0.437
		c2.128,3.148,4.483,5.008,5.404,5.575c2.562,7.812,6.547,19.11,10.244,27.409C314.656,232.735,317.619,237.934,320.045,241.845z
		 M318.343,182.179c0.946,2.864,2.292,6.954,2.984,8.956c-1.434-3.332-2.56-6.706-2.86-8.325
		C318.427,182.589,318.384,182.381,318.343,182.179z M356.367,256.325c-0.176,0.271-0.318,0.481-0.409,0.613
		c-0.128,0.188-0.406,0.435-0.787,0.724c0.267-0.279,0.528-0.581,0.783-0.899C356.096,256.616,356.234,256.471,356.367,256.325z
		 M324.491,197.268c-0.701-1.065-1.409-2.367-2.083-3.758c1.273,2.152,3.767,5.815,5.073,7.846
		C326.285,199.826,325.246,198.413,324.491,197.268z M328.029,166.656c-1.232,2.232-4.228,4.406-5.638,5.698
		c-0.196,0.18-0.404,0.383-0.615,0.6c0.715-0.808,1.449-1.547,2.145-2.098c2.911-2.309,3.213-2.611,4.317-5.121
		c0.694-1.577,1.942-3.194,3.124-4.55c-0.073,0.101-0.146,0.198-0.22,0.304C330.203,162.84,329.263,164.425,328.029,166.656z
		 M283.414,183.142c-0.739-0.1-0.66-0.109-0.867-0.213C282.84,183.001,283.13,183.072,283.414,183.142z M194.711,266.793
		c0.171,0.229,0.344,0.458,0.52,0.692c-0.17-0.171-0.47-0.358-0.991-0.461C194.495,266.938,194.64,266.848,194.711,266.793z
		 M222.014,280.563l0.017,0.024L222.014,280.563L222.014,280.563z M436.04,191.348l-9.19,62.13
		c-0.008-0.475-0.047-0.832-0.079-1.045c0.861-0.718,1.683-1.466,2.459-2.243l1.698,0.569l36.062-14.998L436.04,191.348z
		 M361.282,243.198c-0.037,3.027-1.259,6.306-2.536,8.92c0.023-0.062,0.047-0.124,0.07-0.187c1.467-3.312,2.393-7.159,2.418-10.631
		C361.271,241.944,361.289,242.58,361.282,243.198z M348.772,208.894c-1.057-1.724-2.729-3.808-3.184-6.589
		c-0.005-0.035-0.01-0.076-0.016-0.11C346.406,205.013,347.67,206.881,348.772,208.894z M185.383,255.564
		c0.205,1.036,0.428,2.035,0.648,2.952c0.13,0.54,0.283,1.049,0.448,1.542C185.548,257.734,185.26,256.998,185.383,255.564z
		 M187.344,262.177c0.611,1.236,1.315,2.248,2.026,3.033C188.642,264.492,187.946,263.509,187.344,262.177z M195.388,267.696
		c0.786,1.043,1.607,2.132,2.424,3.22l-2.358-3.047C195.454,267.869,195.442,267.798,195.388,267.696z M200.695,275.305l0.303-0.099
		c0.618,0.849,1.194,1.654,1.7,2.388c0.228,0.329,0.455,0.651,0.681,0.968L200.695,275.305z"/>
	<polygon fill="#FFFFFF" points="477.5,93.873 409.094,72.352 362.125,90.155 431.051,113.225 	"/>
	<path fill="#FFFFFF" d="M298.286,225.582c-3.113,5.422-5.65,13.678-5.65,13.678l13.884-25.627
		C306.519,213.633,301.398,220.16,298.286,225.582z"/>
</g>
<g>
	<path fill="#54596B" d="M329.079,152.835c0.116,1.899,0.253,0.41,0.253,0.41s9.973-8.131,15.187-17.024
		c5.215-8.89,8.257-12.258,6.263-20.428c-1.996-8.171-6.478-11.723-6.478-11.723s-0.171,3.536-0.777,1.913
		c-0.606-1.624-3.675-6.606-7.657-8.614c0,0-4.321-4.429-8.422-2.528c0,0-3.712-3.468-6.798-3.131
		c-3.085,0.335-3.593,0.786-3.593,0.786s-5.896-2.12-7.494-1.328c-1.599,0.792,0.127,1.596,0.127,1.596s-3.063,1.187-3.625,1.931
		c-0.56,0.741,1.114,1.172,1.114,1.172s-8.554,5.37-12.562,11.341c-4.009,5.971-6.129,11.867-6.129,11.867s1.559,3.676,0.884,6.333
		c-0.674,2.656-1.592,6.961-0.448,6.992c0,0,1.585,0.059,2.046-1.553l2.935-3.799c0,0,3.799-3.798,4.317-4.431
		c0.518-0.634,3.685-2.994,4.606-3.282c0.92-0.288,4.72-1.266,5.755-0.921c1.036,0.346,4.251,0.586,5.296,1.381
		c1.045,0.796,5.296,3.167,6.447,3.972c1.151,0.806,2.36,1.727,2.705,2.59c0.346,0.864,0.518,1.786,0.518,2.13
		c0,0.345,1.498-0.172,2.534-0.057c1.036,0.115,4.317,1.554,4.835,1.899c0.518,0.345,3.453,2.418,3.914,3.108
		c0.461,0.691,2.073,2.36,2.188,3.051s0.518,2.935,0.46,3.223c-0.057,0.288-0.862,2.533-0.862,2.706
		c0,0.173-1.038,1.957-1.325,2.245c-0.288,0.288-2.59,3.338-2.705,3.569c-0.116,0.23-2.246,3.338-2.246,3.338"/>
	<path fill="#F7BFBB" d="M240.413,306.207l4.758,5.826l3.512-1.722l-4.575-7.213c0,0-0.645,1.584-1.583,1.7
		c-0.938,0.117-2.757,0.06-2.698,0.235C239.884,305.209,240.413,306.207,240.413,306.207z"/>
	<path fill="#F7BFBB" d="M224.932,284.556l-4.845-6.702c0,0-2.096-2.404-2.261-2.989c-0.167-0.584-0.969-2.019,0.323-2.826
		c1.292-0.807,2.665-1.533,3.392-0.322c0.727,1.21,6.299,8.802,6.299,8.802l5.33,8.156l2.422,2.826c0,0,1.292,1.778,1.292,3.15
		s0.323,2.503,0.323,2.503s-1.291-1.292-2.1-1.776c-0.807-0.484-3.391-2.099-3.391-2.099s-1.211-0.971-1.615-1.938
		c-0.404-0.97-1.455-2.908-2.423-3.876C226.709,286.494,224.932,284.556,224.932,284.556z"/>
	<path fill-rule="evenodd" clip-rule="evenodd" fill="#C1E6F8" d="M333.021,159.199c0,0-0.94,0.939-1.88,2.29
		c-0.939,1.351-1.879,2.936-3.112,5.167c-1.232,2.232-4.228,4.406-5.638,5.698c-1.409,1.292-3.348,3.699-3.582,4.228
		c-0.235,0.528-1.879,1.41-1.468,2.584c0.412,1.174,3.759,11.453,4.346,12.98c0.587,1.526,4.992,7.869,6.284,9.982
		c1.292,2.115,4.17,5.169,5.344,6.4c1.175,1.233,9.279,9.28,10.513,10.161c1.233,0.879,3.289,2.643,4.522,3.7
		c1.233,1.057,2.584,1.526,2.76,2.994c0.176,1.469,0.881,3.7-0.118,7.577c-0.998,3.875-4.522,7.985-7.105,10.629
		c-2.584,2.644-6.93,5.754-11.745,6.343c-4.816,0.587-6.872-0.881-7.106-0.822s-2.819-3.583-3.054-4.053
		c-0.235-0.47-2.114-4.699-2.76-2.114c-0.646,2.584-1.057,3.935-0.117,5.579c0.939,1.644,5.507,5.993,6.753,6.989
		c1.245,0.995,5.579,4.288,10.571,6.108c4.992,1.819,6.46,2.348,8.926,1.35s6.812-2.524,7.87-3.523
		c1.057-0.997,4.11-3.876,4.581-4.992c0.469-1.115,2.114-4.99,2.76-8.397c0.646-3.405,0.646-7.575,0.529-9.337
		c-0.117-1.764-1.88-7.283-2.937-8.459c-1.057-1.174-3.23-3.874-3.23-3.874s-0.938-3.113-1.115-3.76
		c-0.176-0.645-3.641-9.044-4.581-10.924c-0.94-1.879-3.112-4.169-3.641-7.398c-0.528-3.229-1.056-11.041-1.468-13.802
		c-0.411-2.759-2.819-14.917-3.23-16.736c-0.411-1.821-1.233-5.168-2.349-6.989c-1.116-1.82-3.465-5.05-3.465-5.05
		s-1.292-1-1.526-0.882"/>
	<path fill="#C1E6F8" d="M212.302,155.3c0,0,6.988-11.408,26.096-13.2c19.109-1.792,23.027-2.056,23.027-2.056
		s2.974-2.236,6.109-3.32c3.504-1.212,7.407-1.048,6.593-0.336c-2.986,2.613-8.628,12.278-9.479,16.944
		c-2.314,12.689,1.585,23.98,5.971,28.366c1.121,1.119,10.223,2.687,12.689,3.582c0.821,0.299,5.151-3.658,8.136-4.851
		c2.986-1.194,3.21,11.271,6.196,19.631c2.985,8.359,5.453,16.26,5.453,16.26s-8.289,10.089-9.484,13.672
		c-1.194,3.582-5.299,12.988-5.299,12.988l-62.323,24.193l-2.464-5.002l-4.777-15.451l-2.985-1.492c0,0-5.462-3.741-14.887,0.174
		c-8.198,3.405-20.724,14.597-19.53,19.374c0,0,2.314,3.882,4.554,6.943c0,0-3.508,1.492-5.897-2.092
		c-2.388-3.582-3.297-7.629-3.988-11.195c-0.266-1.373-2.38-9.212,1.45-12.093c0.721-0.542-0.657-2.499-0.51-3.446
		c0.215-1.388,1.319-2.198,1.554-3.646c0.268-1.644-0.136-1.436,0.15-3.06c0.82-4.672,3.042-8.392,3.858-11.242
		c0.747-2.617,13.057-41.12,24.402-61.657C209.373,158.845,211.929,155.798,212.302,155.3z"/>
	<path fill="#88C6E3" d="M287.081,191.238c0,0,10.591,5.828,12.632,6.996c2.04,1.165-1.945-1.457-3.014-3.693
		c-1.067-2.234-2.331-5.44-3.4-6.218s-0.972-1.651-2.429-0.583C289.413,188.809,287.081,191.238,287.081,191.238z"/>
	<path fill="#88C6E3" d="M253.83,186.927l17.997-0.159l-3.205-6.024c0,0,0.253-1.577-2.691-0.837
		c-2.945,0.741-7.22,3.559-8.873,4.821C255.407,185.992,253.83,186.927,253.83,186.927z"/>
	<path fill="#DEDDE5" d="M415.562,268.809c0,0-20.694,11.217-50.295,0.332c-12.939-4.759-5.709-11.417-5.709-11.417
		s-16.364,7.993-26.64,7.611c-10.276-0.381-22.264-11.229-22.264-11.229l-25.836-11.431l28.82-11.754l5.562,9.759
		c0,0,0.862,1.44,0.144,2.95c-0.719,1.51-2.087,3.309,1.798,7.266c3.885,3.957,15.107,10.573,17.481,11.582
		c2.373,1.007,6.905,0.431,8.488-0.217s8.057-4.172,8.849-5.323c0.792-1.15,5.252-7.912,5.323-13.74
		c0.072-5.826-2.014-13.164-2.014-13.164l3.597-2.158l3.525,1.078c0,0-1.08,5.396-0.863,9.928c0.215,4.534,1.223,6.762,2.805,10.288
		c1.583,3.523,4.245,5.827,5.18,6.689c0.935,0.863,0.348,0.021-0.947,1.316c-1.295,1.295-2.068,3.766-2.068,3.766
		c0.359,1.439,1.287,2.244,2.006,2.1c0.72-0.145,1.862,0.681,2.51-0.328c0.648-1.006,2.151-3.593,2.151-3.593
		s6.737,3.331,15.297,4.194c8.562,0.862,13.811-1.904,14.099-1.976c0.287-0.073,3.352,2.146,3.352,2.146s1.294,2.518,2.014,3.885
		c0.719,1.366,4.964-2.734,4.964-2.734l-1.196-6.343c0,0,8.448-3.427,11.038-6.088C426.731,252.205,428.824,261.528,415.562,268.809
		z"/>
	<path fill="#DEDDE5" d="M207.664,292.933l-15.933-14.471l8.917-3.216l10.787,13.091c0,0-0.647,1.113-0.555,2.111
		C210.971,291.444,207.664,292.933,207.664,292.933z"/>
	<path fill="#F1F0F4" d="M362.057,90.155L431,113.436v16.221v66.221c0,0-0.518,0.429-2.229,1.854c0,0-4.112-0.998-8.965,0.856
		c-4.852,1.855-7.122,5.994-7.122,5.994s-3.989-1.998-9.698-2.427c-5.708-0.427-9.273,0.857-9.273,0.857s-1.997-5.138-9.561-5.709
		c-7.564-0.57-10.846,4.71-12.272,6.851c-1.427,2.141-2.14,8.563-1.997,10.418c0.143,1.855,1.141,3.996,1.141,3.996
		s-3.282,5.567-3.996,7.564c-0.713,1.998-0.872,2.854-0.872,2.854L362,227.646V93.692L362.057,90.155z"/>
	<polygon fill="#DEDDE5" points="154.89,298.66 266.953,348.311 512,237.413 512,230.967 266.5,341.782 155.018,292.97 	"/>
	<path fill="#F1F0F4" d="M269.353,181.887l3.964,8.062l-9.864,60.598l21.5-8.323l-0.939-48.819l7.516-6.237
		c0,0-3.745-3.454-6.999-3.879c-3.253-0.425-0.391-0.039-4.07-1.029c-3.68-0.99-6.933-2.83-9.338-2.83
		c-2.405,0-3.479-0.092-3.479-0.092L269.353,181.887z"/>
	<g>
		
			<line fill="none" stroke="#54596B" stroke-width="0.9705" stroke-miterlimit="10" x1="284.26" y1="208.983" x2="267.828" y2="221.386"/>
		
			<line fill="none" stroke="#54596B" stroke-width="0.9705" stroke-miterlimit="10" x1="284.253" y1="217.133" x2="266.508" y2="230.331"/>
		
			<line fill="none" stroke="#54596B" stroke-width="0.9705" stroke-miterlimit="10" x1="284.253" y1="224.906" x2="265.482" y2="238.69"/>
		
			<line fill="none" stroke="#54596B" stroke-width="0.9705" stroke-miterlimit="10" x1="284.107" y1="193.815" x2="270.907" y2="203.055"/>
		
			<line fill="none" stroke="#54596B" stroke-width="0.9705" stroke-miterlimit="10" x1="283.667" y1="201.734" x2="269.588" y2="212.146"/>
		
			<line fill="none" stroke="#54596B" stroke-width="0.9705" stroke-miterlimit="10" x1="288.982" y1="185.215" x2="277.974" y2="191.794"/>
		
			<line fill="none" stroke="#54596B" stroke-width="0.9705" stroke-miterlimit="10" x1="283.959" y1="209.361" x2="267.766" y2="220.994"/>
		
			<line fill="none" stroke="#54596B" stroke-width="0.9705" stroke-miterlimit="10" x1="284.693" y1="232.678" x2="263.869" y2="247.637"/>
		
			<line fill="none" stroke="#54596B" stroke-width="0.9705" stroke-miterlimit="10" x1="284.546" y1="240.304" x2="277.655" y2="244.997"/>
		
			<line fill="none" stroke="#54596B" stroke-width="0.9705" stroke-miterlimit="10" x1="281.521" y1="182.92" x2="272.665" y2="188.493"/>
		
			<line fill="none" stroke="#54596B" stroke-width="0.9705" stroke-miterlimit="10" x1="275.208" y1="180.338" x2="270.37" y2="183.329"/>
	</g>
	<g>
		<path fill="none" stroke="#54596B" stroke-width="0.9705" stroke-miterlimit="10" d="M295.532,178.837
			c-2.86,2.806-6.047,4.585-8.19,5.23c0,0-10.408-2.348-11.102-3.067c-6.982-7.25-7.966-18.379-6.689-26.035
			c1.903-11.418,8.754-17.126,8.754-17.126l2.607-2.992"/>
		<path fill="none" stroke="#54596B" stroke-width="0.9705" stroke-miterlimit="10" d="M287.341,184.067
			c0,0,5.081,2.215,7.478,7.146c2.396,4.932,5.912,7.749,7.083,8.47"/>
		<path fill="none" stroke="#54596B" stroke-width="0.9705" stroke-miterlimit="10" d="M276.24,181c0,0-5.959-2.27-10.309-1.093
			c-4.352,1.177-12.101,7.02-12.101,7.02s-0.049-17.792,2.02-25.112c4.947-17.506,11.632-21.421,11.632-21.421
			s2.081-1.715,5.043-2.853c0,0,2.503-1.614,6.445-0.649"/>
		<path fill="none" stroke="#54596B" stroke-width="0.9705" stroke-miterlimit="10" d="M291.826,187.049
			c0,0-6.688,5.082-7.812,6.355c0,0-9.283-2.754-10.956-3.743l-5.007-9.907"/>
		<path fill="none" stroke="#54596B" stroke-width="0.9705" stroke-miterlimit="10" d="M273.356,189.217
			c0,0-3.814,20.827-9.904,61.33"/>
		<path fill="none" stroke="#54596B" stroke-width="0.9705" stroke-miterlimit="10" d="M284.013,193.404
			c-0.932,8.655,0.804,35.56,0.804,49.271"/>
	</g>
	
		<path fill="none" stroke="#54596B" stroke-width="0.9705" stroke-linecap="round" stroke-linejoin="round" stroke-miterlimit="10" d="
		M157.605,293.87"/>
	
		<polyline fill="none" stroke="#54596B" stroke-width="0.9705" stroke-linecap="round" stroke-linejoin="round" stroke-miterlimit="10" points="
		324.022,315.852 266.125,342.021 228.532,325.34 	"/>
	
		<polyline fill="none" stroke="#54596B" stroke-width="0.9705" stroke-linecap="round" stroke-linejoin="round" stroke-miterlimit="10" points="
		477.694,220.703 511.432,231.148 450.785,258.559 	"/>
	
		<line fill="none" stroke="#54596B" stroke-width="0.9705" stroke-miterlimit="10" x1="352.451" y1="215.69" x2="361.564" y2="212.115"/>
	
		<line fill="none" stroke="#54596B" stroke-width="0.9705" stroke-miterlimit="10" x1="246.755" y1="257.167" x2="313.637" y2="230.922"/>
	
		<line fill="none" stroke="#54596B" stroke-width="1.1417" stroke-linecap="round" stroke-miterlimit="10" x1="154.806" y1="292.926" x2="201.106" y2="275.171"/>
	<polyline fill="none" stroke="#54596B" stroke-linecap="round" stroke-miterlimit="10" points="511.5,238 511.5,241.551 
		380.75,300.649 266.464,352.298 245.017,342.783 191.795,319.175 154.752,302.708 	"/>
	
		<line fill="none" stroke="#54596B" stroke-width="0.9705" stroke-miterlimit="10" x1="191.309" y1="299.142" x2="210.971" y2="291.444"/>
	<polyline fill="none" stroke="#54596B" stroke-width="0.9705" stroke-miterlimit="10" points="242.885,281.043 297.144,303.819 
		248.095,324.352 	"/>
	<path fill="none" stroke="#54596B" stroke-width="0.9705" stroke-miterlimit="10" d="M187.631,232.985c0,0-1.687-0.142-6.058,1.276
		c-4.374,1.417-3.513,2.859-3.797,5.966c-0.284,3.105,4.432,41.852,4.432,41.852"/>
	
		<line fill="none" stroke="#54596B" stroke-width="0.9705" stroke-miterlimit="10" x1="103.427" y1="188.457" x2="172.502" y2="167.334"/>
	<line fill="none" stroke="#54596B" stroke-miterlimit="10" x1="155.5" y1="173" x2="155.5" y2="127"/>
	<path fill="none" stroke="#54596B" stroke-width="0.9705" stroke-miterlimit="10" d="M258.689,166.107"/>
	<path fill="none" stroke="#54596B" stroke-width="0.9705" stroke-miterlimit="10" d="M269.995,157.834"/>
	<path fill="none" stroke="#54596B" stroke-width="0.9705" stroke-miterlimit="10" d="M275.25,189.333"/>
	<path fill="none" stroke="#54596B" stroke-width="0.9705" stroke-miterlimit="10" d="M265.486,153.612"/>
	<path fill="none" stroke="#54596B" stroke-width="0.9705" stroke-miterlimit="10" d="M246.213,157.431"/>
	<path fill="none" stroke="#54596B" stroke-width="0.9705" stroke-miterlimit="10" d="M284.497,178.873"/>
	<path fill="none" stroke="#54596B" stroke-width="0.9705" stroke-miterlimit="10" d="M315.48,228.868"/>
	
		<polygon fill="none" stroke="#54596B" stroke-width="0.9705" stroke-linecap="round" stroke-linejoin="round" stroke-miterlimit="10" points="
		477.5,93.873 431.051,113.225 362.125,90.155 409.094,72.352 	"/>
	<path fill="none" stroke="#54596B" stroke-width="1.1417" stroke-linecap="round" stroke-miterlimit="10" d="M362.032,91.408"/>
	<polyline fill="none" stroke="#54596B" stroke-linecap="round" stroke-miterlimit="10" points="477.083,232.05 430.529,251.057 
		361.5,227.646 361.5,124 	"/>
	<line fill="none" stroke="#54596B" stroke-linecap="round" stroke-miterlimit="10" x1="476.5" y1="94" x2="476.5" y2="207"/>
	<line fill="none" stroke="#54596B" stroke-miterlimit="10" x1="431.5" y1="113" x2="431.5" y2="225"/>
	<path fill="none" stroke="#54596B" stroke-width="0.9705" stroke-miterlimit="10" d="M228.302,272.473c0,0,9.238,2.41,11.848,5.121
		c2.611,2.711,3.515,5.021,4.619,7.931c1.104,2.914,0.2,6.128-0.201,7.531c-0.401,1.406-0.903,4.418-1.205,5.223
		c-0.301,0.803-1.003,1.104-1.003,1.104s2.208,1.605,1.707,3.413c-0.502,1.807-1.907,2.31-2.61,2.31s-1.909-0.201-1.909-0.201"/>
	<path fill="none" stroke="#54596B" stroke-width="0.9705" stroke-miterlimit="10" d="M240.854,306.713c0,0-1.908,1.104-3.313,2.309
		s-5.322,1.908-7.933,2.31c-2.61,0.401-6.525-0.803-8.233-2.01c0,0-0.703,0.1-2.811-1.204c-2.109-1.305-5.824-3.614-7.33-5.422
		s-1.004-2.912-0.703-4.518c0.301-1.606,0.301-3.214,0.402-4.419c0.1-1.204-0.402-3.413,0.502-5.422
		c0.903-2.008,2.41-4.617,3.414-6.425c1.004-1.808,4.519-5.021,4.519-5.021"/>
	<path fill="none" stroke="#54596B" stroke-width="0.9705" stroke-miterlimit="10" d="M242.36,299.383c0,0-1.607-0.804-3.616-1.606
		c-2.007-0.803-2.007-0.803-2.007-0.803s-1.105-1.507-2.913-2.411c-1.807-0.903-2.911-1.907-2.911-1.907s-2.31-4.82-5.823-7.529"/>
	<path fill="none" stroke="#54596B" stroke-width="0.9705" stroke-miterlimit="10" d="M237.54,297.274
		c0.3,0-0.603-0.703-0.803-3.213c-0.201-2.512-0.302-5.122-0.402-6.126c-0.101-1.004-3.916-3.312-3.916-3.312"/>
	
		<line fill="none" stroke="#54596B" stroke-width="0.9705" stroke-miterlimit="10" x1="236.234" y1="289.04" x2="233.925" y2="289.442"/>
	<path fill="none" stroke="#54596B" stroke-width="0.9705" stroke-miterlimit="10" d="M218.262,289.943c0,0,1.808,2.008,2.812,3.916
		c1.003,1.907,1.104,3.815,3.313,5.122c2.21,1.305,4.619,2.811,7.029,3.915c2.409,1.104,4.217,1.809,5.823,1.908
		c1.607,0.1,3.113,0.2,3.113,0.2"/>
	<path fill="none" stroke="#54596B" stroke-width="0.9705" stroke-miterlimit="10" d="M239.146,305.105c0,0-1.004,1.508-2.711,2.209
		c-1.707,0.702-3.614,1.005-5.924,0.603c-2.31-0.403-6.728,0.1-8.333-0.904c-1.607-1.003-5.222-7.43-6.326-8.937"/>
	<path fill="none" stroke="#54596B" stroke-width="0.9705" stroke-miterlimit="10" d="M214.346,302.193c0,0,1.707,2.009,2.912,3.414
		c1.205,1.405,2.009,2.51,2.912,3.313"/>
	<polyline fill="none" stroke="#54596B" stroke-width="0.9705" stroke-miterlimit="10" points="239.547,304.904 245.17,312.033 
		250.091,315.749 248.484,309.925 243.865,303.198 	"/>
	<path fill="none" stroke="#54596B" stroke-width="0.9705" stroke-miterlimit="10" d="M236.636,293.257l-15.664-21.988
		c0,0-0.903-0.302-2.51,0.701c-1.606,1.005-0.804,2.311-0.804,2.311l7.933,11.447"/>
	<path fill="none" stroke="#54596B" stroke-width="0.9705" stroke-miterlimit="10" d="M231.214,273.176c0,0-4.92-5.623-7.129-9.439
		c-2.209-3.812-3.413-12.247-5.22-15.762c-1.808-3.515-5.623-4.921-12.752-3.917c-7.13,1.004-12.149,4.016-13.957,7.432
		c-1.808,3.414-2.61,7.128-1.808,9.034c0.803,1.909,8.534,11.549,12.35,17.07c3.816,5.521,7.631,9.439,8.635,11.547"/>
	<path fill="none" stroke="#54596B" stroke-width="0.9705" stroke-miterlimit="10" d="M194.767,266.749c0,0-0.603,0.604-2.409,0.401
		c-1.808-0.2-5.021-3.213-6.326-8.634c-1.305-5.422-2.754-13.567,0.559-16.68c3.313-3.112,9.438-6.727,17.671-6.727
		c8.234,0,13.799,5.333,15.908,8.446c2.108,3.112,1.004,11.144,1.004,11.144"/>
	<path fill="none" stroke="#54596B" stroke-width="0.9705" stroke-miterlimit="10" d="M200.088,197.771
		c3.112-7.431,10.342-24.9,11.647-28.717c1.306-3.815,7.631-16.568,16.466-21.286c8.837-4.72,22.392-6.325,27.312-6.225
		c4.92,0.101,9.265-0.828,11.173-0.828"/>
	<path fill="none" stroke="#54596B" stroke-width="0.9705" stroke-miterlimit="10" d="M186.131,243.455
		c0.804-1.907-0.802-2.309-0.201-4.417c0.603-2.109,1.206-2.31,1.406-3.214c0.2-0.903-0.201-1.706,0.2-3.414
		c0.402-1.706,0.603-2.309,1.708-5.021"/>
	<path fill="none" stroke="#54596B" stroke-width="0.9705" stroke-miterlimit="10" d="M333.951,159.147c0,0,3.894,2.476,5.602,7.897
		c1.707,5.422,4.92,20.886,5.121,28.918c0.201,8.032,3.112,10.542,4.92,14.559c1.807,4.017,5.622,13.856,5.723,14.157"/>
	<path fill="none" stroke="#54596B" stroke-width="0.9705" stroke-miterlimit="10" d="M347.484,221.265c0,0,1.908-1.908,7.028,2.913
		c5.121,4.818,6.727,10.24,6.727,16.967c0,6.728-3.414,14.962-7.63,17.873c-4.217,2.911-9.84,4.719-11.849,4.217
		c-2.007-0.501-11.044-3.412-14.659-6.728c-3.614-3.312-8.333-6.928-8.434-9.237c-0.101-2.309,1.104-5.221,1.104-5.221"/>
	<path fill="none" stroke="#54596B" stroke-width="0.9705" stroke-miterlimit="10" d="M306.519,213.633
		c0,0-5.121,6.527-8.233,11.949c-3.113,5.422-5.65,13.678-5.65,13.678"/>
	<path fill="none" stroke="#54596B" stroke-width="0.9705" stroke-miterlimit="10" d="M294.567,177.484l0.606,1.41
		c0,0,1.807,1.605,2.209,2.509c0.401,0.906,0.702,5.524,2.108,10.544c1.405,5.02,7.329,23.193,12.651,35.142
		c5.322,11.949,12.651,21.889,12.651,21.889s9.639,4.017,18.073-4.418c8.434-8.435,8.434-11.848,8.534-14.86
		c0.101-3.012-0.201-4.819-0.201-4.819s-8.635-7.531-13.152-11.747c-4.519-4.217-10.845-11.748-13.556-15.865
		c-2.711-4.116-5.522-11.748-6.024-14.458c-0.502-2.711-1.073-4.022-1.073-4.022s3.614-5.622,6.527-7.932
		c2.911-2.309,3.213-2.611,4.317-5.121c1.104-2.511,3.615-5.121,5.02-6.627c0,0,2.009-1.707,2.209-3.212
		c0.201-1.507,1.104-4.018,1.708-5.222c0.603-1.205,0.468-3.994,0.468-4.998"/>
	<path fill="none" stroke="#54596B" stroke-width="0.9705" stroke-miterlimit="10" d="M301.574,177.888"/>
	<g>
		<g>
			<path fill="none" stroke="#54596B" stroke-width="0.9705" stroke-miterlimit="10" d="M305.756,174.097
				c-4.659,1.981-10.784,4.354-12.272,3.897c-1.486-0.458-9.231-6.97-9.55-7.211c-0.317-0.241-2.756-10.913-2.503-15.22
				c0.253-4.306-0.711-10.532,3.512-17.008c4.223-6.475,9.088-11.255,12.611-15.259c3.524-4.003,9.172-7.07,17.374-2.708
				c8.204,4.36,8.623,6.01,8.509,8.589c0,0,2.93-1.453,5.823,0.23c3.449,2.009,9.596,5.977,7.984,10.758
				c-1.61,4.782-1.447,3.634-1.447,3.634c-0.24,0.316-2.992,4.402-6.465,9.444c-3.474,5.042-8.46,9.441-11.422,12.702l-2.592,0.892
				c-5.254,2.157-6.333,4.312-10.915,8.085c-4.581,3.773-3.637,6.064-3.637,6.064"/>
			<path fill="none" stroke="#54596B" stroke-width="0.9705" stroke-miterlimit="10" d="M329.332,153.245
				c0,0,9.973-8.131,15.187-17.024c5.215-8.89,8.257-12.258,6.263-20.428c-1.996-8.171-6.478-11.723-6.478-11.723
				s-0.171,3.536-0.777,1.913c-0.606-1.624-3.675-6.606-7.657-8.614c0,0-4.321-4.429-8.422-2.528c0,0-3.712-3.468-6.798-3.131
				c-3.085,0.335-3.593,0.786-3.593,0.786s-5.896-2.12-7.494-1.328c-1.599,0.792,0.127,1.596,0.127,1.596s-3.063,1.187-3.625,1.931
				c-0.56,0.741,1.114,1.172,1.114,1.172s-8.554,5.37-12.562,11.341c-4.009,5.971-6.129,11.867-6.129,11.867
				s1.559,3.676,0.884,6.333c-0.674,2.656-1.592,6.961-0.448,6.992"/>
			<path fill="none" stroke="#54596B" stroke-width="0.9705" stroke-miterlimit="10" d="M288.648,119.526
				c0,0-3.378,0.281-5.148,4.61c-1.769,4.329-2.524,7.759-2.588,10.711c-0.062,2.951,1.607,4.71,2.618,5.138"/>
			<path fill="#54596B" d="M319.276,145.896c0,0,6.726,0.58,8.581,2.98c1.854,2.399,0.779,5.586,0.118,4.256
				c-0.66-1.333-1.45-3.595-3.949-3.817C321.526,149.094,316.351,146.021,319.276,145.896z"/>
			<path fill="none" stroke="#54596B" stroke-width="0.9705" stroke-miterlimit="10" d="M324.158,154.696
				c0,0-0.844,0.405-3.798-1.638c-1.882-1.303-2.606-1.882-3.877-2.706"/>
			<path fill="#54596B" d="M308.039,139.773c0,0-3.085-6.004-6.006-6.811c-2.923-0.807-5.467,1.393-3.984,1.5
				c1.482,0.107,3.876-0.017,5.028,2.211C304.228,138.903,309.034,142.529,308.039,139.773z"/>
			<path fill="none" stroke="#54596B" stroke-width="0.9705" stroke-miterlimit="10" d="M297.41,139.188
				c0,0,1.465,0.609,4.562,2.431c2.462,1.448,2.328,1.64,4.042,2.658"/>
			<path fill="none" stroke="#54596B" stroke-width="0.9705" stroke-miterlimit="10" d="M305.447,168.549
				c0,0-1.014-1.736-4.924-3.909c-5.612-3.119-5.791-2.606-5.791-2.606"/>
			<path fill="none" stroke="#54596B" stroke-width="0.9705" stroke-miterlimit="10" d="M308.768,162.695
				c0,0-0.936-1.099-2.345-0.791c-1.411,0.309-4.067-1.11-4.407-2.74c-0.339-1.629-2.342-2.355-2.342-2.355"/>
			<path fill="none" stroke="#54596B" stroke-width="0.9705" stroke-miterlimit="10" d="M288.083,128.549
				c0,0-2.974-0.479-3.639,1.961c-0.667,2.442,0.833,3.575,0.833,3.575"/>
		</g>
		<polygon fill="#54596B" stroke="#54596B" stroke-width="0.5709" stroke-miterlimit="10" points="299.655,140.316 299.366,142.198 
			302.406,143.791 303.709,143.067 		"/>
		<polygon fill="#54596B" stroke="#54596B" stroke-width="0.5709" stroke-miterlimit="10" points="318.478,151.755 317.465,153.347 
			320.505,155.085 321.519,154.071 		"/>
	</g>
	<path fill="none" stroke="#54596B" stroke-width="0.9705" stroke-miterlimit="10" d="M217.354,240.382c0,0,1.892-4.019,0.946-4.492
		c0,0,2.836-1.182,2.127-2.836c-0.709-1.656,11.111-28.134,11.583-28.842c0.473-0.711,9.026-16.454,10.875-19.623
		c3.31-5.674,4.965-20.803,2.128-23.64"/>
	<g>
		<path fill-rule="evenodd" clip-rule="evenodd" fill="none" stroke="#54596B" stroke-width="0.9705" stroke-miterlimit="10" d="
			M421.546,213.222l7.329-10.307c14.117-19.855-59.229-19.984-50.237-0.003l4.64,10.308"/>
		<path fill-rule="evenodd" clip-rule="evenodd" fill="#FFFFFF" stroke="#54596B" stroke-width="0.9705" stroke-miterlimit="10" d="
			M376.548,202.141c1.662,0,3.195-1.347,3.41-3.001c0.215-1.653-0.964-3.002-2.627-3.002c-1.662,0-3.194,1.349-3.409,3.001
			C373.706,200.793,374.886,202.14,376.548,202.141z"/>
		<path fill-rule="evenodd" clip-rule="evenodd" fill="#FFFFFF" stroke="#54596B" stroke-width="0.9705" stroke-miterlimit="10" d="
			M376.94,199.14c-6.757,3.609-8.565,13.727-5.752,19.979l23.082-15.194C391.456,197.673,383.697,195.529,376.94,199.14z"/>
		<path fill-rule="evenodd" clip-rule="evenodd" fill="#DEDDE5" stroke="#54596B" stroke-width="0.9705" stroke-miterlimit="10" d="
			M396.036,262.959c19.408,0.001,38.696-11.317,41.213-27.928c2.518-16.61-11.257-30.159-30.666-30.159
			c-19.409-0.002-37.291,13.546-39.81,30.155C364.256,251.639,376.627,262.958,396.036,262.959z"/>
		<g>
			
				<path fill-rule="evenodd" clip-rule="evenodd" fill="#FFFFFF" stroke="#54596B" stroke-width="0.9705" stroke-miterlimit="10" d="
				M382.512,247.632c-1.19-0.737-2.907-0.297-3.815,0.982l-6.436,9.052l0,0l-1.076,1.514c-0.909,1.277-0.68,2.928,0.509,3.666
				c1.19,0.739,2.907,0.297,3.815-0.982l1.077-1.514l0,0l6.435-9.051C383.93,250.02,383.7,248.369,382.512,247.632z"/>
			
				<path fill-rule="evenodd" clip-rule="evenodd" fill="#FFFFFF" stroke="#54596B" stroke-width="0.9705" stroke-miterlimit="10" d="
				M408.961,260.113l2.362,5.057l0,0l0.681,1.514c0.576,1.279,2.176,1.72,3.558,0.983c1.382-0.738,2.042-2.39,1.466-3.668
				l-0.682-1.514l0,0l-2.36-5.056"/>
		</g>
		<g>
			
				<path fill-rule="evenodd" clip-rule="evenodd" fill="#FFFFFF" stroke="#54596B" stroke-width="0.9705" stroke-miterlimit="10" d="
				M372.22,235.285l0.209-1.604h-4.656l0.914,1.536h3.493L372.22,235.285z"/>
			<g>
				
					<path fill-rule="evenodd" clip-rule="evenodd" fill="#FFFFFF" stroke="#54596B" stroke-width="0.9705" stroke-miterlimit="10" d="
					M392.461,263.314c16.962,0.001,32.592-13.757,34.792-30.625c2.201-16.869-9.839-30.628-26.801-30.63
					c-16.962-0.001-32.59,13.758-34.791,30.625C363.46,249.553,375.499,263.313,392.461,263.314z"/>
				
					<path fill-rule="evenodd" clip-rule="evenodd" fill="#FFFFFF" stroke="#54596B" stroke-width="0.9705" stroke-miterlimit="10" d="
					M416.356,232.688c1.421-10.9-6.358-19.79-17.318-19.79c-10.959-0.002-21.058,8.888-22.48,19.788
					c-1.421,10.898,6.358,19.789,17.318,19.79"/>
				<polygon fill-rule="evenodd" clip-rule="evenodd" fill="#54596B" points="409.272,233.529 390.951,233.529 391.17,231.845 
					409.492,231.846 				"/>
				<polygon fill-rule="evenodd" clip-rule="evenodd" fill="#54596B" points="392.21,216.938 398.452,237.41 397.465,237.813 
					391.222,217.342 				"/>
				
					<path fill-rule="evenodd" clip-rule="evenodd" fill="#FFFFFF" stroke="#54596B" stroke-width="0.9705" stroke-miterlimit="10" d="
					M431.165,202.144c1.662,0,3.195-1.348,3.41-3.001c0.215-1.652-0.964-3.001-2.626-3.001c-1.662,0-3.193,1.348-3.41,3
					C428.323,200.796,429.503,202.144,431.165,202.144z"/>
				
					<path fill-rule="evenodd" clip-rule="evenodd" fill="#FFFFFF" stroke="#54596B" stroke-width="0.9705" stroke-miterlimit="10" d="
					M431.557,199.143c5.815,3.609,6.926,11.604,2.481,17.854l-21.059-13.072C417.425,197.675,425.742,195.533,431.557,199.143z"/>
			</g>
		</g>
	</g>
	
		<line fill="none" stroke="#54596B" stroke-width="0.9705" stroke-miterlimit="10" x1="409.597" y1="128.668" x2="375.134" y2="117.134"/>
	<path fill="none" stroke="#54596B" stroke-width="0.9705" stroke-miterlimit="10" d="M388.625,129.179"/>
	<path fill="none" stroke="#54596B" stroke-width="0.9705" stroke-miterlimit="10" d="M423.087,140.713"/>
	
		<line fill="none" stroke="#54596B" stroke-width="0.9705" stroke-miterlimit="10" x1="418.768" y1="138.815" x2="396.814" y2="131.587"/>
	<path fill="none" stroke="#54596B" stroke-width="0.9705" stroke-miterlimit="10" d="M377.061,136.887"/>
	<path fill="none" stroke="#54596B" stroke-width="0.9705" stroke-miterlimit="10" d="M399.015,144.115"/>
	
		<line fill="none" stroke="#54596B" stroke-width="0.9705" stroke-miterlimit="10" x1="399.015" y1="144.115" x2="377.061" y2="136.887"/>
	
		<line fill="none" stroke="#54596B" stroke-width="0.9705" stroke-miterlimit="10" x1="389.75" y1="170.757" x2="378.773" y2="167.143"/>
	
		<line fill="none" stroke="#54596B" stroke-width="0.9705" stroke-miterlimit="10" x1="405.277" y1="171.096" x2="385.624" y2="164.86"/>
	
		<line fill="none" stroke="#54596B" stroke-width="0.9705" stroke-miterlimit="10" x1="477.064" y1="124.845" x2="444.06" y2="139.241"/>
	<path fill="none" stroke="#54596B" stroke-width="0.9705" stroke-miterlimit="10" d="M432.015,153.212"/>
	
		<line fill="none" stroke="#54596B" stroke-width="0.9705" stroke-miterlimit="10" x1="452.974" y1="143.634" x2="432.015" y2="153.212"/>
	<path fill="none" stroke="#54596B" stroke-width="0.9705" stroke-miterlimit="10" d="M444.06,153.212"/>
	<path fill="none" stroke="#54596B" stroke-width="0.9705" stroke-miterlimit="10" d="M465.02,143.634"/>
	
		<line fill="none" stroke="#54596B" stroke-width="0.9705" stroke-miterlimit="10" x1="465.02" y1="143.634" x2="444.06" y2="153.212"/>
	
		<line fill="none" stroke="#54596B" stroke-width="0.9705" stroke-miterlimit="10" x1="469.355" y1="184.105" x2="458.875" y2="188.895"/>
	
		<line fill="none" stroke="#54596B" stroke-width="0.9705" stroke-miterlimit="10" x1="465.02" y1="190.368" x2="454.54" y2="195.158"/>
	<line fill="none" stroke="#54596B" stroke-linecap="round" stroke-miterlimit="10" x1="266.5" y1="342" x2="266.5" y2="346"/>
</g>
<path fill="#FFFFFF" d="M867.635,206.952c0,0-2.299,8.256-5.435,12.123c-3.135,3.867-31.75,17.904-32.034,17.05
	c-0.286-0.857-2.283-17.984,0.284-22.266c2.569-4.28,9.99-13.984,11.418-14.843c1.428-0.855,17.697-3.709,18.84-3.995
	C861.849,194.735,867.712,202.611,867.635,206.952z"/>
<path fill="#FFFFFF" d="M1020.52,234.002l-59.607-18.652l-31.539-9.699l-4.896,2.539l6.927-2.069l-5.231-1.638l2.081-4.534
	l-7.472,2.848l-12.977-4.064L796.04,243.333l-0.519-3.512c-0.497-5.099-1.716-13.013-3.221-21.809l-1.155-7.826l-3.843-19.584
	c-2.641-13.838-4.875-24.837-4.875-24.837l1.961-2.659c0.241,0.03,0.644,0.082,1.166,0.147c0.004,0.027,0.008,0.042,0.008,0.042
	l0.814,4.475l4.418,22.731c0,0,2.907,16.277,3.953,22.032c1.047,5.755,3.372,23.428,3.663,25.812
	c0.29,2.384,1.452,1.396,1.452,1.396l10.175-4.069c0,0,16.039-6.271,21.914-8.798c0.08,1.202,0.186,1.994,0.186,1.994l1.317-2.664
	c0.203-0.097,0.371-0.18,0.477-0.24c1.518-0.867,1.319-2.058,1.073-2.896l6.128-12.4c-2.05,0.447-3.514,1.288-4.624,2.214
	c0.727-0.957,2.248-2.319,3.592-3.421c5.468,3.035,10.396,5.76,10.396,5.76l8.38-13.404l0.072-0.329
	c2.682,0.494,5.562,0.898,7.617,1.017l-2.604,13.696c1.806-2.236,2.068-4.716,2.068-4.716c-0.091-0.582,4.021-3.216,5.985-5.901
	c1.967-2.687,2.5-6.938,4.077-8.514c1.576-1.573,1.1-4.198,1.515-5.595c0.414-1.394,2.897-3.461,1.477-5.166
	c-1.42-1.707-2.815-2.121-2.815-2.121s-0.102-2.016-1.703-4.884c-1.6-2.87-3.808-3.789-6.238-3.868
	c-1.058-0.035-2.326,0.084-3.718,0.32l9.514-43.244c-6.46-2.25-29.032-8.956-30.077-9.603l-8.046,14.515
	c-1.015-1.124-3.688-1.542-3.813-1.625c-0.175-0.115-5.579-2.791-7.325-3.896c-1.744-1.104-13.778-5.29-15.404-5.987
	c-1.629-0.698-11.221-3.722-11.338-3.895c0,0-2.209-0.872-2.325-1.105c-0.115-0.232-1.046-1.453-2.442-2.79
	c-1.395-1.337-0.755,2.093-0.755,2.093l0.652,4.726c-0.381-0.714-0.782-1.374-1.176-1.847c-1.503-1.806-2.614-2.293-2.614-2.293
	l-0.038,0.145c-0.023-0.16-0.047-0.31-0.068-0.445c1.347-2.678,2.354-5.43,2.825-7.996c0.784-4.25,2.642-10.46,2.987-16.472
	l0.021,0.228c0,0,0.309-0.898,0.751-2.405l-2.539,14.089c0.794,0.072,1.818-2.372,2.397-4.321c0.578-1.95,1.69-6.789,2.064-9.423
	c0.292-2.059-0.769-2.611-1.251-2.756c1.146-4.33,2.555-10.921,2.514-16.986c0.003-0.416,0.002-0.829-0.009-1.24
	c-0.257-10.305,0.552-14.77-5.451-20.661s-11.684-6.544-11.684-6.544s0.149,0.272,0.325,0.623c-0.21-0.038-0.325-0.051-0.325-0.051
	s0.557,1.005,0.783,1.674c-0.08,0.014-0.214-0.04-0.437-0.211c-1.372-1.061-6.605-3.675-11.049-3.281c0,0-6.006-1.486-8.487,2.292
	c0,0-4.984-0.99-7.43,0.923c-2.444,1.912-2.639,2.561-2.639,2.561s-6.126,1.309-7.068,2.825c-0.293,0.475-0.311,0.778-0.192,0.972
	c-0.247,0.692,0.303,0.863,0.726,0.893c-0.584,0.827-1.583,2.321-1.643,2.975c-0.012,0.131,0.015,0.23,0.061,0.308
	c-0.03,0.097-0.054,0.188-0.061,0.264c-0.062,0.672,0.79,0.584,1.262,0.486c-1.004,2.193-4.174,9.569-4.391,15.613
	c-0.027,0.75-0.035,1.486-0.031,2.208c-0.031,6.455,1.081,11.679,1.081,11.679s0.018,0.011,0.045,0.032
	c-0.698,0.712-2.222,2.727-1.613,6.33c0.779,4.611,1.945,7.923,3.447,10.464c1.503,2.541,3.851,3.156,4.934,2.988l-1.923-6
	c0.182,0.051,0.295,0.063,0.295,0.063l-0.534-6.183c0,0-0.777,0.329-1.404,0.995l-2.633-8.215c0.984,0.805,2.874,2.537,3.478,4.439
	c0.828,2.612,2.317,6.754,3.306,6.177c0,0,0.068-0.234,0.161-0.583l0.134-0.01c-0.228,2.817-0.387,5.385-0.432,7.355
	c-0.102,4.474,1.233,7.957,2.771,10.836c-1.234,0.885-2.233,1.835-2.925,2.569c-0.396,0.322-0.752,0.669-0.93,1.061
	c-0.104,0.129-0.159,0.202-0.159,0.202s-0.022,0.134-0.065,0.383c-0.712,0.944-4.59,1.376-4.59,1.376l-2.025,1.267l-5.703,2.165
	c0,0-6.227,1.503-8.675,2.854c-2.447,1.35-3.291,0.337-4.979,0.253c-1.687-0.084-3.629,0.168-4.556,0.59
	c-0.929,0.422-3.546,2.87-4.39,3.46c-0.846,0.592-3.63,2.279-5.147,3.628c-1.521,1.351-1.436,3.039-1.605,3.884
	c-0.168,0.844-1.435,2.278-2.868,3.292c-1.435,1.013-3.039,3.544-4.557,5.908c-1.52,2.362-1.773,4.388-1.702,4.956
	c0.07,0.568-1.083,2.386-1.252,2.893c-0.169,0.506-2.616,5.401-3.883,6.751c-1.266,1.351-5.4,10.043-6.33,11.646
	c-0.929,1.603-1.265,4.557-1.94,5.654c-0.675,1.099-3.46,7.09-4.22,8.271c-0.76,1.183-5.064,9.622-6.077,14.432
	c-1.014,4.812,0.253,9.705,1.604,12.912c1.35,3.209,3.207,3.715,3.207,3.715s1.688,2.954,1.771,3.207
	c0.085,0.253,1.099,3.798,6.921,6.582c5.822,2.786,14.684-0.084,17.722-1.855c3.039-1.774,2.025,0.084,2.025,0.084
	s0.377,1.162,0.749,2.234c-3.755,0.85-7.716,1.798-9.688,2.437c-4.374,1.417-3.514,2.859-3.798,5.966
	c-0.283,3.105,3.715,37.972,3.715,37.972l10.856-28.195c0.16,0.176,0.318,0.357,0.479,0.543l0.519,10.117
	c-0.683,1.856-1.234,3.953-1.397,6.23c-0.163,2.273,0.612,8.212,1.047,10.912l-45.038,17.973l48.449,21.479l-48.909-21.434
	l-0.54,4.025L663,299.776v5.847l17.033,7.322l-11.443-9.336l90.461,40.095l-4.975,1.991l21.617,9.515l33.505-15.123L1021,244.406v-4
	l-2.36,0.931l2.36-1.068v-6.448L1020.52,234.002z M770.095,253.687l-5.519,2.202l0.404-6.634l0.844-48.19
	c0,0,0.676-30.129,0.845-32.323c0.169-2.195-1.098-2.532-1.098-2.532l3.812-2.382l2.867,2.739
	C772.25,166.567,769.633,246.625,770.095,253.687z M759.742,154.146l-0.66-0.068l0.333,0.314c-0.071-0.025-0.155-0.042-0.244-0.05
	c-0.183-0.04-0.338-0.019-0.467,0.031c-0.064,0.014-0.133,0.035-0.204,0.058c0.197-0.128,0.394-0.248,0.582-0.353
	c0.349-0.193,0.718-0.362,1.099-0.511c1.151-0.35,2.653-0.688,4.111-0.914c1.539-0.152,2.954-0.126,3.895-0.074
	c-1.812,0.021-3.382,0.131-4.777,0.346C760.037,153.444,759.751,154.123,759.742,154.146z M787.182,155.777
	c-1.889-1.012-5.145-2.407-9.206-2.748c1.659-0.011,2.892-0.036,2.892-0.036c0.025-0.015,0.054-0.035,0.08-0.051l-0.116,0.433
	C780.831,153.375,784.083,153.709,787.182,155.777z"/>
<path fill="#FFFFFF" d="M890.024,138.869c0,0-4.573-1.492-19.618-7.647l-17.611,63.815
	C867.267,188.6,887.374,144.064,890.024,138.869z"/>
<path fill="#FFFFFF" d="M862,211.171l-7.523-1.955C856.826,212.384,861.459,211.334,862,211.171z"/>
<path fill="#54596B" d="M795.188,96.263c0,0,4.187-12.167,3.928-22.472c-0.257-10.305,0.552-14.769-5.451-20.66
	c-6.003-5.892-11.684-6.544-11.684-6.544s1.719,3.094,0.347,2.034c-1.372-1.061-6.605-3.676-11.049-3.282
	c0,0-6.006-1.485-8.487,2.293c0,0-4.984-0.99-7.43,0.924c-2.444,1.911-2.639,2.562-2.639,2.562s-6.126,1.307-7.068,2.823
	c-0.938,1.516,0.952,1.289,0.952,1.289s-1.977,2.624-2.062,3.551c-0.085,0.926,1.563,0.41,1.563,0.41s-4.435,9.073-4.692,16.261
	c-0.258,7.185,1.05,13.314,1.05,13.314s3.264,2.301,4.091,4.914c0.828,2.612,2.317,6.754,3.306,6.177c0,0,0.829-2.862,0.766-3.675
	c0,0,0.188-5.386,0.25-6.075c0.062-0.689,1.251-9.27,1.251-9.958c0,0,1.693-6.387,2.256-7.453c0.564-1.065,3.194-4.384,5.073-5.198
	c1.879-0.815,4.698-1.753,6.076-1.816c1.376-0.062,5.572,0.063,6.763,0.063c1.189,0,3.068,0.062,3.695,0.563
	c0.626,0.501,1.314,2.38,1.879,2.004c0.564-0.376,2.618-2.21,3.82-2.38s3.444-0.438,5.072-0.062c1.63,0.376,4.823,1.251,5.949,2.317
	c1.128,1.065,2.568,2.192,2.694,3.57c0.126,1.377,0.5,6.827,0.5,7.829c0,1.002-0.75,7.453-0.689,7.829
	c0.063,0.375-0.313,6.137-0.249,6.575"/>
<polygon fill="#DEDDE5" points="664.127,301.514 776.072,351.166 1021,240.269 1021,233.82 775.619,344.637 664.196,295.824 "/>
<path fill="#C1E6F8" d="M798.12,122.02c0.117,0.173,9.709,3.197,11.338,3.895c1.626,0.697,13.66,4.884,15.404,5.987
	c1.746,1.104,7.15,3.78,7.325,3.896c0.175,0.116,5.232,0.872,4.011,3.254c-1.221,2.384-17.207,30.753-17.149,30.928
	c0.059,0.175-7.15,13.08-7.15,13.08s-1.86,2.267-1.512,2.732c0.349,0.465,3.662,2.907,3.896,2.964
	c0.232,0.06,13.951,8.432,14.999,9.188c1.045,0.755,8.836,5.579,10.521,6.394c1.686,0.813,5.465,2.675,5.465,2.675
	s-1.861-0.058-3.372,1.046c-1.513,1.104-4.999,3.953-5.697,5.29c-0.697,1.338-0.988,2.733-1.104,4.302
	c-0.117,1.569-0.407,4.011-0.291,4.709c0.117,0.697,1.162,2.442-0.871,3.604c-2.036,1.162-23.894,9.708-23.894,9.708l-10.175,4.069
	c0,0-1.162,0.988-1.452-1.396c-0.291-2.384-2.616-20.057-3.663-25.812c-1.046-5.755-3.953-22.032-3.953-22.032l-4.418-22.731
	l-0.814-4.475c0,0-0.231-0.757,0.758-2.385l3.835-5.291c0,0,1.686-2.208,1.047-2.674c-0.64-0.464-5.523-3.022-5.523-3.022
	s-3.429,1.162-0.639-1.57c2.792-2.732,6.337-7.091,6.978-8.255c0.638-1.162,1.858-7.149,1.858-8.429
	c0-1.279-0.349-4.708-0.349-4.708l-0.93-6.744c0,0-0.64-3.43,0.755-2.093c1.396,1.337,2.327,2.558,2.442,2.79
	C795.911,121.147,798.12,122.02,798.12,122.02z"/>
<path fill="#C1E6F8" d="M752.506,120.661c0,0-0.93,5.822-0.844,7.595c0.083,1.773,0.377,4.092,1.56,5.864
	c1.18,1.772,6.497,9.539,6.92,9.874c0.421,0.337,5.718,5.169,6.309,5.842c0.593,0.676,4.136,2.532,0.928,2.532
	c-3.207,0-9.113,1.436-9.198,2.195c-0.084,0.76,0.379-1.085,1.793,0.26c1.414,1.344,9.516,8.938,9.516,8.938l-3.917,2.449
	c0,0,1.267,0.337,1.098,2.532c-0.169,2.194-0.845,32.323-0.845,32.323l-0.844,48.19l-0.422,6.92c0,0,1.098,1.604-1.603,2.616
	c-2.701,1.012-50.976,20.339-50.976,20.339s-1.856,1.519-2.277-1.013c-0.423-2.529-1.267-8.86-1.098-11.223
	c0.169-2.364,0.756-4.538,1.476-6.446c0.719-1.91,1.514-2.747,1.454-5.409c-0.06-2.661-0.734-2.83-1.579-3.928
	c-0.845-1.096-1.772-1.856-2.447-2.953c-0.676-1.098-1.099-2.532-0.676-3.967c0.422-1.436,1.521-3.967,1.772-6.076
	c0.254-2.111,0.251-3.887-0.127-4.771c-0.379-0.883-1.309-3.753-1.309-3.753s1.014-1.858-2.025-0.084
	c-3.038,1.771-11.899,4.642-17.722,1.855c-5.822-2.784-6.836-6.329-6.921-6.582c-0.084-0.253-1.771-3.207-1.771-3.207
	s-1.857-0.506-3.207-3.715c-1.352-3.207-2.618-8.101-1.604-12.912c1.013-4.81,5.317-13.249,6.077-14.432
	c0.76-1.181,3.545-7.171,4.22-8.271c0.676-1.097,1.012-4.051,1.94-5.654c0.93-1.603,5.064-10.295,6.33-11.646
	c1.267-1.351,3.714-6.246,3.883-6.751c0.169-0.506,1.322-2.324,1.252-2.893c-0.071-0.568,0.183-2.594,1.702-4.956
	c1.518-2.364,3.122-4.895,4.557-5.908c1.434-1.014,2.7-2.448,2.868-3.292c0.17-0.845,0.085-2.533,1.605-3.884
	c1.518-1.349,4.302-3.036,5.147-3.628c0.844-0.59,3.461-3.038,4.39-3.46c0.927-0.421,2.869-0.674,4.556-0.59
	c1.688,0.084,2.531,1.097,4.979-0.253c2.448-1.351,8.675-2.854,8.675-2.854l5.703-2.165l2.025-1.267c0,0,4.526-0.502,4.703-1.611
	c0.176-1.109,1.864-1.869,2.54-2.628c0.674-0.76,1.856-1.772,1.856-1.266C752.928,118.045,752.506,120.661,752.506,120.661z"/>
<path fill="#FFFFFF" d="M707.454,188.687c0,0-7.395,2.212-10.158,5.252s-6.427,10.918-6.359,12.37
	c0.069,1.451-0.897,6.497,1.313,10.229c2.212,3.731,3.94,5.459,5.598,6.357c1.659,0.897,3.665,2.35,7.81,1.727
	c4.146-0.622,8.501-2.901,9.399-3.662c0.897-0.76,2.971-4.147,3.662-5.459c0.691-1.314,2.003-3.664,2.003-3.664
	s-0.069-1.312,1.59-1.174c1.659,0.138,4.286-0.415,5.46-0.622c1.176-0.208,2.419-0.968,2.558-1.659
	c0.138-0.691,0.138-2.072,0.138-2.072s0-0.831,0.69-1.384c0.691-0.551,2.143-1.726,2.35-2.487c0.208-0.76,0.139-1.935,0.139-2.141
	c0-0.207-0.346-0.76,0.829-1.521c1.175-0.761,2.281-1.935,2.212-3.109c-0.069-1.176-0.414-2.695-0.414-2.695
	s0.691-0.623,1.382-1.659c0.69-1.037,1.797-3.041,1.797-3.87s-0.968-3.801-0.968-3.801l-0.829-1.036c0,0,0.276-1.175,0.414-1.866
	s0.346-4.216,0.276-6.912c-0.069-2.694-0.967-9.191-0.967-10.918c0-1.728-0.83-6.772-1.383-7.809
	c-0.552-1.037-2.004-2.903-3.109-2.764c-1.105,0.137-3.663,0.275-3.801,3.523c-0.138,3.249-0.068,7.257,0.069,8.985
	c0.139,1.728,0.068,5.943-0.555,7.187c-0.621,1.244-1.657,3.457-4.421,4.423c-2.765,0.967-5.115,1.878-5.944,3.255
	c-0.829,1.375-2.972,3.793-3.178,4.209c-0.209,0.414-2.145,2.556-3.594,3.247C710.012,187.855,707.454,188.687,707.454,188.687z"/>
<path fill="#88C6E3" d="M799.1,164.999c3.741,0.428-14.969-1.924-14.969-1.924l2.138-2.887c0,0,2.115-4.383,2.715-3.313
	c0.601,1.068,3.272,3.42,4.983,4.704C795.677,162.861,799.1,164.999,799.1,164.999z"/>
<path fill="#88C6E3" d="M748.635,164.251l16.466-5.024l-5.133-4.383c0,0-0.641-1.284-2.565,0.214
	C755.478,156.553,748.635,164.251,748.635,164.251z"/>
<polygon fill="#DEDDE5" points="761.089,322.6 754.812,324.882 698.025,299.672 704.733,297.477 "/>
<polygon fill="#DEDDE5" points="899.606,262.265 821.816,296.813 763.104,269.415 769.813,267.221 822.347,291.331 902.287,256.465 
	"/>
<path fill="#F1F0F4" d="M761.809,156.593l10.441,9.975c0,0-2.864,87.624-2.071,87.624c0.792,0,25.951-10.249,25.951-10.249
	l-4.984-33.756l-8.718-44.421l6.556-8.891c0,0-4.497-3.328-11.095-3.855c-6.599-0.528-11.05-0.622-14.479-0.094
	c-3.432,0.527-3.668,1.222-3.668,1.222L761.809,156.593z"/>
<g>
	<path fill="none" stroke="#54596B" stroke-width="0.9705" stroke-miterlimit="10" d="M684.764,199.251
		c-2.406,6.879-0.266,17.432,2.975,19.207"/>
	<path fill="none" stroke="#54596B" stroke-width="0.9705" stroke-miterlimit="10" d="M747.846,122.726c0,0-4.871,2.532-7.923,4.797
		c0,0-2.513,1.219-4.101,2.406c-1.589,1.185-3.76,1.22-3.76,1.22s-4.5-1.806-8.344,1.567c-3.845,3.375-7.36,4.2-7.965,6.628
		c-0.604,2.43-1.061,3.246-1.061,3.246s-4.596,4.262-6.413,7.439c-1.82,3.177-1.916,5.271-1.916,5.271s-1.143,3.482-4.613,9.081
		c-3.472,5.599-6.621,10.93-7.559,14.692"/>
	<path fill="none" stroke="#54596B" stroke-width="0.9705" stroke-miterlimit="10" d="M789.195,119.495
		c0,0,2.056,12.654,1.655,16.971c-0.752,8.167-6.548,14.495-9.983,16.527c0,0-10.669,0.211-11.512-0.32
		c-8.516-5.369-18.284-21.734-18.025-24.34c0.34-3.447,1.357-10.771,1.357-10.771"/>
	<path fill="none" stroke="#54596B" stroke-width="0.9705" stroke-miterlimit="10" d="M827.253,137.829
		c-3.897-2.014-9.23-4.535-14.63-6.343c-10.458-3.503-19.683-6.643-19.683-6.643"/>
	<path fill="none" stroke="#54596B" stroke-width="0.9705" stroke-miterlimit="10" d="M866.566,202.503
		c-4.136-0.235-11.603-1.637-14.095-2.581c-2.494-0.946-2.905-2.762-2.905-2.762s-2.491-0.258-3.136-2.608
		c-0.646-2.354,3.488-4.323,3.488-4.323c-1.343-0.982-1.315-2.842,0.391-4.263c1.707-1.421,5.789-2.193,5.789-2.193
		s-1.149,0.038-1.859-1.603c-0.709-1.641,0.766-3.655,4.464-4.894c3.694-1.239,7.195-1.921,9.625-1.841
		c2.431,0.079,4.639,0.999,6.238,3.868c1.602,2.869,1.703,4.884,1.703,4.884s1.396,0.415,2.815,2.121
		c1.421,1.705-1.062,3.772-1.477,5.166c-0.415,1.396,0.062,4.021-1.515,5.595c-1.577,1.576-2.11,5.827-4.077,8.514
		c-1.965,2.686-6.076,5.319-5.985,5.901c0,0-0.263,2.479-2.068,4.716"/>
	<path fill="none" stroke="#54596B" stroke-width="0.9705" stroke-miterlimit="10" d="M874.124,132.51
		c-6.46-2.25-29.032-8.956-30.077-9.603l-36.74,66.285c0,0,17.279,11.617,24.644,15.729c7.362,4.114,18.547,10.299,18.547,10.299
		l8.38-13.404"/>
	<path fill="none" stroke="#54596B" stroke-width="0.9705" stroke-miterlimit="10" d="M870.69,175.7
		c5.692-10.513,16.684-31.636,19.334-36.831c0,0-4.573-1.492-10.84-3.572"/>
	<path fill="none" stroke="#54596B" stroke-width="0.9705" stroke-miterlimit="10" d="M780.831,153.375c0,0,5.498,0.553,9.007,4.767
		c3.507,4.215,9.809,7.337,11.118,7.756c1.309,0.419-0.377-4.078-0.385-10.515c-0.011-6.439-2.375-19.278-5.356-25.968
		c0,0-1.639-4.513-3.141-6.318c-1.503-1.806-2.614-2.293-2.614-2.293"/>
	<path fill="none" stroke="#54596B" stroke-width="0.9705" stroke-miterlimit="10" d="M769.355,152.673
		c0,0-6.331-0.778-10.273,1.405c-3.943,2.185-10.069,9.712-10.069,9.712s-3.926-14.364-3.214-21.937
		c1.082-11.477,2.685-20.568,2.685-20.568s1.609-2.162,4.214-3.976"/>
	<path fill="none" stroke="#54596B" stroke-width="0.9705" stroke-miterlimit="10" d="M788.608,157.098c0,0-5.585,7.074-6.181,8.667
		c0,0-8.493,0.815-10.409,0.491l-12.937-12.179"/>
	<path fill="none" stroke="#54596B" stroke-width="0.9705" stroke-miterlimit="10" d="M772.25,166.567
		c0,0-1.513,83.059-1.877,87.038"/>
	<path fill="none" stroke="#54596B" stroke-width="0.9705" stroke-miterlimit="10" d="M782.428,165.766
		c0,0,13.398,65.944,13.337,78.066"/>
	<path fill="none" stroke="#54596B" stroke-width="0.9705" stroke-miterlimit="10" d="M824.16,215.039
		c1.504-3.218,3.88-6.298,6.429-8.324l2.046-1.307"/>
	<path fill="none" stroke="#54596B" stroke-width="0.9705" stroke-miterlimit="10" d="M841.133,210.667
		c-4.532,0.988-6.225,3.899-7.483,5.416c-2.766,3.335-1.512,12.785-1.512,12.785"/>
	<path fill="none" stroke="#54596B" stroke-width="0.9705" stroke-miterlimit="10" d="M795.702,84.257
		c-0.037,0.397-0.222,5.32-0.515,11.436c-0.292,6.115-2.211,12.482-3.009,16.814c-0.797,4.333-3.111,9.197-6.027,13.334
		c-2.914,4.141-6.868,9.388-8.373,9.783c-1.504,0.396-11.521-1.055-11.918-1.091c-0.396-0.036-8.096-7.819-10.15-11.611
		c-2.056-3.793-6.159-8.575-5.984-16.303c0.174-7.729,2.121-24.641,3.005-29.902c0.883-5.259,4.065-10.843,13.333-11.461
		c9.271-0.622,10.498,0.561,11.761,2.812c0,0,1.724-2.779,5.069-2.875c3.99-0.111,10.882,0.73,12.034,5.642
		C796.08,75.747,795.702,84.257,795.702,84.257z"/>
	<path fill="none" stroke="#54596B" stroke-width="0.9705" stroke-miterlimit="10" d="M795.188,95.693
		c0,0,4.187-12.168,3.928-22.473c-0.257-10.305,0.552-14.77-5.451-20.661s-11.684-6.544-11.684-6.544s1.719,3.094,0.347,2.034
		c-1.372-1.061-6.605-3.675-11.049-3.281c0,0-6.006-1.486-8.487,2.292c0,0-4.984-0.99-7.43,0.923
		c-2.444,1.912-2.639,2.561-2.639,2.561s-6.126,1.309-7.068,2.825c-0.938,1.516,0.952,1.289,0.952,1.289s-1.977,2.624-2.062,3.551
		c-0.085,0.926,1.563,0.41,1.563,0.41s-4.435,9.074-4.692,16.26c-0.258,7.186,1.05,13.315,1.05,13.315s3.264,2.301,4.091,4.913
		c0.828,2.614,2.317,6.755,3.306,6.178"/>
	<path fill="none" stroke="#54596B" stroke-width="0.9705" stroke-miterlimit="10" d="M742.841,88.495c0,0-2.724,2.021-1.943,6.632
		c0.779,4.611,1.945,7.923,3.447,10.464c1.503,2.541,3.851,3.156,4.934,2.988"/>
	<path fill="none" stroke="#54596B" stroke-width="0.9705" stroke-miterlimit="10" d="M796.384,91.395c0,0,1.854,0.169,1.478,2.807
		c-0.374,2.635-1.486,7.474-2.064,9.423c-0.579,1.95-1.604,4.393-2.397,4.321"/>
	<path fill="#54596B" d="M781.098,87.726c0,0,6.021-3.052,8.86-1.991c2.841,1.06,3.607,4.336,2.345,3.553
		c-1.264-0.784-3.127-2.29-5.367-1.16S778.677,89.374,781.098,87.726z"/>
	<path fill="none" stroke="#54596B" stroke-width="0.9705" stroke-miterlimit="10" d="M790.051,93.486c0,0-1.439-1.934-5.031-1.93
		c-2.09,0.002-2.938,1.187-4.924,1.004"/>
	<path fill="#54596B" stroke="#54596B" stroke-width="0.5709" stroke-miterlimit="10" d="M783.704,92.386
		c-0.032,0.355,0.201,0.667,0.54,0.918c0.102,0.077,0.542,0.029,0.867,0.059c0.357,0.032,0.928,0.141,1.09,0.056
		c0.345-0.177,0.443-0.43,0.473-0.761c0.055-0.588-0.567-1.125-1.387-1.198C784.468,91.385,783.758,91.798,783.704,92.386z"/>
	<path fill="#54596B" d="M768.321,88.45c0,0-5.787-3.477-8.695-2.621c-2.909,0.856-3.911,4.066-2.594,3.375
		c1.314-0.69,3.284-2.058,5.437-0.772C764.622,89.72,770.618,90.267,768.321,88.45z"/>
	<path fill="none" stroke="#54596B" stroke-width="0.9705" stroke-miterlimit="10" d="M758.98,93.556c0,0,1.573-1.827,5.155-1.566
		c2.083,0.152,2.845,1.392,4.839,1.354"/>
	<path fill="#54596B" stroke="#54596B" stroke-width="0.5709" stroke-miterlimit="10" d="M765.387,92.911
		c0.008,0.358-0.247,0.649-0.603,0.878c-0.107,0.069-0.545-0.01-0.87-0.004c-0.357,0.007-0.936,0.074-1.093-0.023
		c-0.328-0.201-0.408-0.459-0.415-0.792c-0.012-0.588,0.645-1.08,1.469-1.096C764.698,91.857,765.375,92.321,765.387,92.911z"/>
	<path fill="none" stroke="#54596B" stroke-width="0.9705" stroke-miterlimit="10" d="M784.673,113.894c0,0-4.184,2.763-10.59,2.333
		c-6.409-0.43-11.058-2.901-11.058-2.901"/>
	<path fill="none" stroke="#54596B" stroke-width="0.9705" stroke-miterlimit="10" d="M780.241,107.356c0,0-1.377-0.44-2.411,0.565
		c-1.035,1.007-4.041,1.202-5.188-0.002c-1.147-1.208-3.232-0.769-3.232-0.769"/>
	<path fill="none" stroke="#54596B" stroke-width="0.9705" stroke-miterlimit="10" d="M747.116,96.459c0,0-2.778,1.161-2.057,3.585
		c0.721,2.427,2.591,2.598,2.591,2.598"/>
	<path fill="none" stroke="#54596B" stroke-width="0.9705" stroke-miterlimit="10" d="M873.606,182.373
		c-0.304-0.133-3.015-1.647-6.591-0.603c-3.579,1.045-11.81,2.19-11.81,2.19"/>
	<path fill="none" stroke="#54596B" stroke-width="0.9705" stroke-miterlimit="10" d="M872.592,189.984c0,0-5.345-1.547-8.465-0.882
		c-3.121,0.665-8.011,2.221-10.551,2.304c-2.54,0.084-3.657-1.178-3.657-1.178"/>
	<path fill="none" stroke="#54596B" stroke-width="0.9705" stroke-miterlimit="10" d="M870.02,196.184c0,0-9.378-1.28-11.09-1.016
		c-1.713,0.266-7.127,1.774-9.029,1.811"/>
	<path fill="none" stroke="#54596B" stroke-width="0.9705" stroke-miterlimit="10" d="M862,211.171
		c-0.541,0.163-5.174,1.213-7.523-1.955"/>
</g>
<polyline fill="none" stroke="#54596B" stroke-width="0.9705" stroke-linecap="round" stroke-linejoin="round" stroke-miterlimit="10" points="
	960.871,215.35 1020.837,234.125 775.361,344.876 664.614,295.779 722.207,272.797 "/>
<polyline fill="none" stroke="#54596B" stroke-width="0.9705" stroke-linecap="round" stroke-linejoin="round" stroke-miterlimit="10" points="
	764.243,256.021 907.805,198.731 931.399,206.12 "/>
<polyline fill="none" stroke="#54596B" stroke-linecap="round" stroke-linejoin="round" stroke-miterlimit="10" points="
	753.973,345.492 775.642,355.109 808.923,340.036 1020.5,244.406 1020.5,240 "/>
<polyline fill="none" stroke="#54596B" stroke-miterlimit="10" points="663.5,300 663.5,305.623 680.013,313.057 "/>
<polygon fill="none" stroke="#54596B" stroke-width="0.9705" stroke-miterlimit="10" points="901.806,255.007 822.9,291.773 
	770.225,267.536 848.711,237.625 "/>
<polyline fill="none" stroke="#54596B" stroke-width="0.9705" stroke-miterlimit="10" points="761.089,322.6 704.305,297.388 
	751.273,279.584 807.539,303.247 "/>
<polyline fill="#F1F0F4" stroke="#54596B" stroke-width="0.9705" stroke-linecap="round" stroke-linejoin="round" stroke-miterlimit="10" points="
	832.747,269.077 849.767,229.858 928.252,199.948 902.287,256.465 822.9,291.773 "/>
<path fill="none" stroke="#54596B" stroke-width="0.9705" stroke-miterlimit="10" d="M716.744,229.908
	c0,0-14.142,2.936-18.513,4.354c-4.374,1.417-3.514,2.859-3.798,5.966c-0.283,3.105,3.715,37.972,3.715,37.972"/>
<line fill="none" stroke="#54596B" stroke-width="0.9705" stroke-miterlimit="10" x1="620.086" y1="188.457" x2="689.161" y2="167.334"/>
<line fill="none" stroke="#54596B" stroke-miterlimit="10" x1="671.5" y1="173" x2="671.5" y2="127"/>
<path fill="none" stroke="#54596B" stroke-width="0.9705" stroke-miterlimit="10" d="M730.429,205.427L730.429,205.427
	c0,0,0,0-0.025,1.718c-0.024,1.718-1.479,3.172-5.869,3.431c-4.39,0.26-8.896-1.079-11.756-4.516
	c-2.86-3.438-1.867-5.594-0.958-11.197c0.91-5.606,0.518-7.097,2.63-9.945c2.113-2.849,2.816-3.314,3.784-5.208
	c0.967-1.897,4.094-2.801,4.094-2.801s3.35-0.487,4.997-2.584c1.647-2.098,2.079-6.82,1.819-11.209
	c-0.259-4.388-0.874-10.663,3.359-10.67c4.232-0.009,4.658,6.908,5.071,12.501c0.414,5.592,0.828,9.733,0.708,12.499
	c-0.122,2.767-0.838,4.816-0.838,4.816s3.048,3.539,1.661,6.836c-1.298,3.084-3.093,3.193-3.093,3.193s1.538,2.828,0.207,4.855
	c-1.335,2.027-2.924,2.168-2.924,2.168s1.033,1.242-0.014,3.294C732.234,204.662,730.429,205.427,730.429,205.427z"/>
<path fill="none" stroke="#54596B" stroke-width="0.9705" stroke-miterlimit="10" d="M737.445,182.26c0,0-3.08-1.908-7.051-3.418"/>
<path fill="none" stroke="#54596B" stroke-width="0.9705" stroke-miterlimit="10" d="M736.304,192.566c0,0-6.407-2.019-12.28-5.71"
	/>
<path fill="none" stroke="#54596B" stroke-width="0.9705" stroke-miterlimit="10" d="M733.297,199.313c0,0-0.573,1.048-5.645-0.947
	c-5.074-1.992-7.854-3.967-7.854-3.967"/>
<path fill="none" stroke="#54596B" stroke-width="0.9705" stroke-miterlimit="10" d="M730.816,205.537c0,0-1.706,0.896-4.866-0.064
	c-3.162-0.959-8.491-4.312-8.491-4.312"/>
<path fill="none" stroke="#54596B" stroke-width="0.9705" stroke-miterlimit="10" d="M703.359,224.709
	c5.694,0.428,12.423-3.16,14.071-6.545c1.647-3.383,3.941-7.569,3.941-7.569"/>
<path fill="none" stroke="#54596B" stroke-width="0.9705" stroke-miterlimit="10" d="M713.922,185.549c0,0-2.304,2.18-6.989,3.277
	c-4.687,1.101-15.165,5.97-16.009,18.312"/>
<path fill="none" stroke="#54596B" stroke-width="0.9705" stroke-miterlimit="10" d="M709.11,188.076c0,0-6.628-0.824-10.448,1.149
	c-3.82,1.975-10.391,6.773-11.918,13.504c-1.525,6.73,0.71,18.755,6.296,22.902c5.585,4.148,11.687,4.356,18.617,1.558
	c6.928-2.801,11.105-10.553,11.838-16.346"/>
<line fill="none" stroke="#54596B" stroke-width="0.9705" stroke-miterlimit="10" x1="783.471" y1="168.867" x2="772.165" y2="177.138"/>
<line fill="none" stroke="#54596B" stroke-width="0.9705" stroke-miterlimit="10" x1="783.487" y1="176.811" x2="772.183" y2="185.083"/>
<line fill="none" stroke="#54596B" stroke-width="0.9705" stroke-miterlimit="10" x1="783.487" y1="176.811" x2="772.183" y2="185.083"/>
<line fill="none" stroke="#54596B" stroke-width="0.9705" stroke-miterlimit="10" x1="784.562" y1="175.916" x2="772.183" y2="185.083"/>
<line fill="none" stroke="#54596B" stroke-width="0.9705" stroke-miterlimit="10" x1="783.507" y1="184.754" x2="772.2" y2="193.025"/>
<line fill="none" stroke="#54596B" stroke-width="0.9705" stroke-miterlimit="10" x1="786.023" y1="182.999" x2="771.416" y2="193.449"/>
<line fill="none" stroke="#54596B" stroke-width="0.9705" stroke-miterlimit="10" x1="783.523" y1="192.699" x2="772.217" y2="200.97"/>
<line fill="none" stroke="#54596B" stroke-width="0.9705" stroke-miterlimit="10" x1="787.373" y1="189.947" x2="771.669" y2="201.54"/>
<line fill="none" stroke="#54596B" stroke-width="0.9705" stroke-miterlimit="10" x1="783.54" y1="200.643" x2="772.234" y2="208.914"/>
<line fill="none" stroke="#54596B" stroke-width="0.9705" stroke-miterlimit="10" x1="788.711" y1="197.02" x2="771.439" y2="209.46"/>
<line fill="none" stroke="#54596B" stroke-width="0.9705" stroke-miterlimit="10" x1="783.557" y1="208.586" x2="772.252" y2="216.858"/>
<line fill="none" stroke="#54596B" stroke-width="0.9705" stroke-miterlimit="10" x1="790.071" y1="203.846" x2="771.165" y2="217.873"/>
<line fill="none" stroke="#54596B" stroke-width="0.9705" stroke-miterlimit="10" x1="783.574" y1="216.529" x2="772.269" y2="224.803"/>
<line fill="none" stroke="#54596B" stroke-width="0.9705" stroke-miterlimit="10" x1="791.409" y1="210.917" x2="771.049" y2="225.929"/>
<line fill="none" stroke="#54596B" stroke-width="0.9705" stroke-miterlimit="10" x1="783.592" y1="224.474" x2="772.286" y2="232.746"/>
<line fill="none" stroke="#54596B" stroke-width="0.9705" stroke-miterlimit="10" x1="792.502" y1="217.967" x2="770.685" y2="233.962"/>
<line fill="none" stroke="#54596B" stroke-width="0.9705" stroke-miterlimit="10" x1="783.608" y1="232.419" x2="772.303" y2="240.689"/>
<line fill="none" stroke="#54596B" stroke-width="0.9705" stroke-miterlimit="10" x1="793.57" y1="225.261" x2="770.702" y2="241.905"/>
<line fill="none" stroke="#54596B" stroke-width="0.9705" stroke-miterlimit="10" x1="794.428" y1="232.165" x2="770.555" y2="248.946"/>
<path fill="none" stroke="#54596B" stroke-width="0.9705" stroke-miterlimit="10" d="M775.348,166.107"/>
<path fill="none" stroke="#54596B" stroke-width="0.9705" stroke-miterlimit="10" d="M786.653,157.834"/>
<line fill="none" stroke="#54596B" stroke-width="0.9705" stroke-miterlimit="10" x1="787.106" y1="158.719" x2="775.348" y2="166.107"/>
<path fill="none" stroke="#54596B" stroke-width="0.9705" stroke-miterlimit="10" d="M770.387,160.999"/>
<path fill="none" stroke="#54596B" stroke-width="0.9705" stroke-miterlimit="10" d="M782.145,153.612"/>
<line fill="none" stroke="#54596B" stroke-width="0.9705" stroke-miterlimit="10" x1="782.145" y1="153.612" x2="768.155" y2="162.413"/>
<path fill="none" stroke="#54596B" stroke-width="0.9705" stroke-miterlimit="10" d="M762.87,157.431"/>
<path fill="none" stroke="#54596B" stroke-width="0.9705" stroke-miterlimit="10" d="M776.862,148.63"/>
<line fill="none" stroke="#54596B" stroke-width="0.9705" stroke-miterlimit="10" x1="771.22" y1="152.921" x2="762.87" y2="157.431"/>
<path fill="none" stroke="#54596B" stroke-width="0.9705" stroke-miterlimit="10" d="M832.138,228.868"/>
<line fill="none" stroke="#54596B" stroke-width="0.9705" stroke-miterlimit="10" x1="795.432" y1="238.558" x2="778.137" y2="250.773"/>
<line fill="none" stroke="#54596B" stroke-width="0.9705" stroke-miterlimit="10" x1="728.563" y1="110.751" x2="719.44" y2="112.507"/>
<line fill="none" stroke="#54596B" stroke-width="0.9705" stroke-miterlimit="10" x1="723.685" y1="75.407" x2="711.718" y2="74.704"/>
<line fill="none" stroke="#54596B" stroke-width="0.9705" stroke-miterlimit="10" x1="732.627" y1="39.965" x2="728.404" y2="34.333"/>
<line fill="none" stroke="#54596B" stroke-width="0.9705" stroke-miterlimit="10" x1="775.565" y1="31.519" x2="777.677" y2="23.071"/>
<line fill="none" stroke="#54596B" stroke-width="0.9705" stroke-miterlimit="10" x1="805.036" y1="42.113" x2="812.779" y2="35.778"/>
<line fill="none" stroke="#54596B" stroke-width="0.9705" stroke-miterlimit="10" x1="815.385" y1="64.26" x2="823.127" y2="60.037"/>
<line fill="none" stroke="#54596B" stroke-width="0.9705" stroke-miterlimit="10" x1="814.218" y1="92.9" x2="823.368" y2="89.38"/>
<line fill="none" stroke="#54596B" stroke-width="0.9705" stroke-miterlimit="10" x1="824.301" y1="200.116" x2="822.951" y2="232.534"/>
<path fill="none" stroke="#54596B" stroke-width="0.9705" stroke-miterlimit="10" d="M714.851,224.992c0,0,3.179,5.922,1.874,10.668
	c-1.304,4.746-3.017,6.458-0.161,9.312c2.854,2.854,4.565,6.279,1.712,10.846c-2.854,4.567,0,18.826,0,18.826"/>
<path fill="none" stroke="#54596B" stroke-width="0.9705" stroke-miterlimit="10" d="M569.064,86.066"/>
<line fill="none" stroke="#54596B" stroke-width="0.9705" stroke-miterlimit="10" x1="806.484" y1="113.319" x2="817.614" y2="115.032"/>
</svg>
