<?xml version="1.0" encoding="UTF-8" standalone="no"?>
<svg width="87px" height="50px" viewBox="0 0 87 50" version="1.1" xmlns="http://www.w3.org/2000/svg" xmlns:xlink="http://www.w3.org/1999/xlink">
    <!-- Generator: Sketch 3.7 (28169) - http://www.bohemiancoding.com/sketch -->
    <title>hoshvaPRmain-Pantone</title>
    <desc>Created with Sketch.</desc>
    <defs>
        <polygon id="path-1" points="0 28.905808 86.8597154 28.905808 86.8597154 0 0 0"></polygon>
    </defs>
    <g id="Page-1" stroke="none" stroke-width="1" fill="none" fill-rule="evenodd">
        <g id="Desktop-Landing" transform="translate(-769.000000, -2759.000000)">
            <rect id="Rectangle-24" fill="#FAFAFA" style="mix-blend-mode: darken;" x="0" y="0" width="1024" height="3234"></rect>
            <g id="hoshvaPRmain-Pantone" transform="translate(769.000000, 2772.000000)">
                <path d="M8.17788211,22.0276344 L9.19453252,22.0276344 C10.7742073,22.0276344 10.9375976,21.1163384 10.9375976,20.5804184 C10.9375976,19.9554104 10.7195081,19.1512984 9.19453252,19.1512984 L8.17788211,19.1512984 L8.17788211,22.0276344 L8.17788211,22.0276344 Z M4.61913415,16.4002424 L9.9751748,16.4002424 C13.5881504,16.4002424 14.6048008,18.8654744 14.6048008,20.5804184 C14.6048008,22.3134584 13.5699959,24.7789224 9.9751748,24.7789224 L8.17788211,24.7789224 L8.17788211,28.9057384 L4.61913415,28.9057384 L4.61913415,16.4002424 L4.61913415,16.4002424 Z" id="Fill-1" fill="#000000"></path>
                <path d="M21.4140244,22.0276344 C22.6848374,22.0276344 23.0842358,21.3130744 23.0842358,20.5804184 C23.0842358,19.8837224 22.6848374,19.1512984 21.4140244,19.1512984 L20.5426098,19.1512984 L20.5426098,22.0276344 L21.4140244,22.0276344 Z M16.9838618,16.4002424 L22.2491301,16.4002424 C26.497748,16.4002424 26.6429837,19.5800344 26.6429837,20.1516824 C26.6429837,22.5101944 25.1722358,23.4927144 23.9738049,23.9035864 L27.5325528,28.9057384 L23.2294715,28.9057384 L20.5426098,24.7789224 L20.5426098,28.9057384 L16.9838618,28.9057384 L16.9838618,16.4002424 Z" id="Fill-3" fill="#000000"></path>
                <polygon id="Fill-5" fill="#1A1918" points="79.8887049 12.863008 84.0826236 12.863008 82.2485504 8.302584 78.3396805 8.302584"></polygon>
                <polygon id="Fill-7" fill="#1A1918" points="79.0535049 0.3574192 75.622074 0.3574192 73.8639195 4.9101872 80.884513 4.9101872"></polygon>
                <polygon id="Fill-9" fill="#1A1918" points="70.7927959 12.863008 74.6780886 12.863008 76.195048 8.302584 72.5540154 8.302584"></polygon>
                <mask id="mask-2" fill="white">
                    <use xlink:href="#path-1"></use>
                </mask>
                <g id="Clip-12"></g>
                <polygon id="Fill-11" fill="#1A1918" mask="url(#mask-2)" points="12.4985285 12.863008 16.0570407 12.863008 16.0570407 8.302584 12.4985285 8.302584"></polygon>
                <polygon id="Fill-13" fill="#1A1918" mask="url(#mask-2)" points="4.61878049 12.863008 8.17729268 12.863008 8.17729268 8.302584 4.61878049 8.302584"></polygon>
                <polygon id="Fill-14" fill="#1A1918" mask="url(#mask-2)" points="4.61878049 4.91028 8.17729268 4.91028 8.17729268 0.357512 4.61878049 0.357512"></polygon>
                <polygon id="Fill-15" fill="#1A1918" mask="url(#mask-2)" points="12.4982927 4.91028 16.0568049 4.91028 16.0568049 0.357512 12.4982927 0.357512"></polygon>
                <polygon id="Fill-16" fill="#1A1918" mask="url(#mask-2)" points="53.1551138 12.863008 56.713626 12.863008 56.713626 8.302584 53.1551138 8.302584"></polygon>
                <polygon id="Fill-17" fill="#1A1918" mask="url(#mask-2)" points="45.2756016 12.863008 48.8341138 12.863008 48.8341138 8.302584 45.2756016 8.302584"></polygon>
                <polygon id="Fill-18" fill="#1A1918" mask="url(#mask-2)" points="45.2756016 4.91028 48.8341138 4.91028 48.8341138 0.357512 45.2756016 0.357512"></polygon>
                <polygon id="Fill-19" fill="#1A1918" mask="url(#mask-2)" points="53.1551138 4.91028 56.713626 4.91028 56.713626 0.357512 53.1551138 0.357512"></polygon>
                <polygon id="Fill-20" fill="#4A4A4A" mask="url(#mask-2)" points="86.8539626 4.9101408 80.8844423 4.9101408 73.8638488 4.9101408 56.7135317 4.9101408 53.1550195 4.9101408 48.8340195 4.9101408 45.2755073 4.9101408 16.0569463 4.9101408 12.4984341 4.9101408 8.17743415 4.9101408 4.61892195 4.9101408 0.0058 4.9101408 0.0058 8.3024448 4.61892195 8.3024448 8.17743415 8.3024448 12.4984341 8.3024448 16.0569463 8.3024448 45.2755073 8.3024448 48.8340195 8.3024448 53.1550195 8.3024448 56.7135317 8.3024448 72.5538976 8.3024448 76.1949301 8.3024448 78.3397512 8.3024448 82.2486211 8.3024448 86.8539626 8.3024448"></polygon>
                <path d="M28.2542756,6.6101672 C28.2542756,4.1985272 26.7474545,3.0014072 25.0951618,3.0014072 C23.4431049,3.0014072 21.936048,4.1985272 21.936048,6.6101672 C21.936048,9.0220392 23.4431049,10.2189272 25.0951618,10.2189272 C26.7474545,10.2189272 28.2542756,9.0220392 28.2542756,6.6101672 M18.2686089,6.6101672 C18.2686089,3.2693672 20.4473813,2.31999998e-05 25.0951618,2.31999998e-05 C29.743178,2.31999998e-05 31.9217146,3.2693672 31.9217146,6.6101672 C31.9217146,9.9509672 29.743178,13.2203112 25.0951618,13.2203112 C20.4473813,13.2203112 18.2686089,9.9509672 18.2686089,6.6101672" id="Fill-21" fill="#1A1918" mask="url(#mask-2)"></path>
                <path d="M40.9625472,3.8589256 C40.3634496,3.3230056 39.5646528,2.7513576 38.6569293,2.7513576 C37.5855797,2.7513576 37.3314171,3.3765976 37.3314171,3.8231976 C37.3314171,4.5734856 38.2030675,4.7878536 38.838474,4.9309976 C40.7083846,5.3597336 42.7963846,6.1636136 42.7963846,9.1114056 C42.7963846,11.5945016 40.9988561,13.2203576 38.021287,13.2203576 C36.3873846,13.2203576 35.0981813,12.6844376 33.2645797,11.2193576 L34.9531813,8.5573896 C35.9516772,9.5044136 37.0591,10.2189736 38.1120593,10.2189736 C38.7656203,10.2189736 39.3649537,9.9152856 39.3649537,9.1649976 C39.3649537,8.0217016 38.2756854,7.8785576 36.9320187,7.4676856 C35.9153683,7.1639976 33.8999862,6.4673016 33.8999862,3.7696056 C33.8999862,1.7507416 35.3888886,6.95999997e-05 38.366222,6.95999997e-05 C40.3634496,6.95999997e-05 41.725035,0.8756376 42.2333602,1.2326856 L40.9625472,3.8589256 Z" id="Fill-22" fill="#1A1918" mask="url(#mask-2)"></path>
                <polygon id="Fill-23" fill="#1A1918" mask="url(#mask-2)" points="58.799174 0.3574424 62.9930927 0.3574424 65.6257268 8.1078664 68.2036618 0.3574424 72.0889545 0.3574424 67.259865 12.8629384 63.8284341 12.8629384"></polygon>
            </g>
        </g>
    </g>
</svg>